<svg width="906" height="254" viewBox="0 0 906 254" fill="none" xmlns="http://www.w3.org/2000/svg">
<style>
#jk-doodle-dash {
	stroke-dasharray: 2338.5;
	stroke-dashoffset: 2338.5;
    stroke-width: 8;
	animation: doodle-dash 4.5s ease-in-out infinite;
}
@keyframes doodle-dash {
    0% {
        stroke-width: 8;
        stroke-dashoffset: 2338.5;
    }

    50% {
        stroke-width: 12;
        stroke-dashoffset: 0;
    }


	90% {
		stroke-dashoffset: 2338.5;
        stroke-width: 5;
	}
}

</style>
<path id="jk-doodle-dash" d="M33 216.67C39.3622 216.034 46.0507 211.71 51.5045 208.816C64.8827 201.718 79.2556 195.734 94.4307 193.754C125.68 189.678 147.249 203.86 175.334 213.657C189.113 218.464 200.794 220.378 212.666 209.784C223.686 199.952 230.372 186.146 238.486 174.066C240.854 170.542 244.205 164.286 248.814 162.878C264.515 158.08 284.689 176.263 298.949 181.382C320.543 189.134 339.485 201.211 362.316 205.911C417.86 217.347 462.069 164.977 495.721 128.343C506.15 116.989 559.714 46.6357 526.382 34.2067C489.345 20.3964 452.36 34.3124 439.669 72.9371C432.628 94.3667 429.224 121.324 441.498 141.576C463.37 177.665 520.225 174.08 552.848 159.973C571.337 151.977 592.245 141.049 605.564 125.438C609.712 120.577 622.612 109.43 616.968 96.6056C609 78.5 573.505 81.1592 555 80.0376C519.033 77.8579 483.149 81.2658 447.845 87.9989C417.035 93.875 388.564 104.378 385.662 139.209C382.795 173.61 408.072 194.697 437.517 207.095C497.058 232.164 564.896 226.579 627.081 215.594C670.037 208.006 713.031 195.478 752.74 177.294C780.801 164.444 808.406 149.616 831.707 129.096C851.15 111.973 860.68 93.0412 873.449 71.4309" stroke="#717572" stroke-width="8" stroke-linecap="round"/>
</svg>
