<svg width="400" height="283" viewBox="0 0 400 283" fill="none" xmlns="http://www.w3.org/2000/svg">
<path d="M202.035 276.679C201.858 277.489 202.37 278.288 203.179 278.465C203.989 278.642 204.788 278.13 204.965 277.321L202.035 276.679ZM210.5 245L211.965 245.321L212.074 244.825L211.859 244.366L210.5 245ZM203.5 230L202.072 229.542L201.892 230.102L202.141 230.634L203.5 230ZM216 191L217.428 191.458L217.59 190.954L217.399 190.46L216 191ZM194 134L192.56 134.42L192.578 134.481L192.601 134.54L194 134ZM204.965 277.321L211.965 245.321L209.035 244.679L202.035 276.679L204.965 277.321ZM211.859 244.366L204.859 229.366L202.141 230.634L209.141 245.634L211.859 244.366ZM204.928 230.458L217.428 191.458L214.572 190.542L202.072 229.542L204.928 230.458ZM217.399 190.46L195.399 133.46L192.601 134.54L214.601 191.54L217.399 190.46ZM195.44 133.58L168.44 41.0797L165.56 41.9203L192.56 134.42L195.44 133.58Z" fill="#65B1DB"/>
<path d="M15 91.5L67.5 96.5L117 80.5L166.5 42L202 19L227 11.5L243 3" stroke="#65B1DB" stroke-width="5" stroke-linecap="round"/>
<path d="M51.5 196.5L19 173V185.5L37.5 205L63.5 224L77 230.5L87 245.5L100 247.5L125 245.5L119 237L104 224L92.5 218L70 207L51.5 196.5Z" fill="#65B1DB"/>
<path d="M209 229.5L171.5 236.5L162 222.5L123.5 233.5L132.5 245.5L123.5 276.5" stroke="#A85E5E" stroke-width="3" stroke-linecap="round"/>
<path d="M171 34L200.5 131.5L223.5 192L281.5 233.5L347.5 248L368 256L374 275" stroke="#A85E5E" stroke-width="3" stroke-linecap="round"/>
<path d="M209 278.5L218 243.5L209 229.5L223.5 192" stroke="#A85E5E" stroke-width="3" stroke-linecap="round"/>
<path d="M132.5 246L105 251.5H85L70.5 232L40 210.5L10.5 183.5" stroke="#A85E5E" stroke-width="3" stroke-linecap="round"/>
<path d="M123.5 233L140.5 199L169.5 174L188 141.5L201 129.5L242 120.5L268.5 118.5L340 111.5L390 100.5" stroke="#A85E5E" stroke-width="3" stroke-linecap="round"/>
<path d="M314.5 39.5L305.5 88V115" stroke="#A85E5E" stroke-width="3" stroke-linecap="round"/>
<path d="M171.5 32.5L184 20L215 23L270 30L314.5 39.5" stroke="#A85E5E" stroke-width="3" stroke-linecap="round"/>
<path d="M171 34L97 11" stroke="#A85E5E" stroke-width="3" stroke-linecap="round"/>
<path d="M172 34L165 4" stroke="#A85E5E" stroke-width="3" stroke-linecap="round"/>
<path d="M123.5 233L92.5 210L56 196.5L35 175.5L14 166.5H2.5" stroke="#A85E5E" stroke-width="3" stroke-linecap="round"/>
<circle cx="224" cy="192" r="4" fill="#A85E5E"/>
<circle cx="209" cy="229" r="4" fill="#A85E5E"/>
<circle cx="217" cy="244" r="4" fill="#A85E5E"/>
<circle cx="124" cy="233" r="4" fill="#A85E5E"/>
<circle cx="132" cy="246" r="4" fill="#A85E5E"/>
<circle cx="84" cy="252" r="4" fill="#A85E5E"/>
<circle cx="11" cy="185" r="4" fill="#A85E5E"/>
<circle cx="92" cy="210" r="4" fill="#A85E5E"/>
<circle cx="171" cy="34" r="4" fill="#A85E5E"/>
<circle cx="314" cy="40" r="4" fill="#A85E5E"/>
<circle cx="338" cy="246" r="4" fill="#A85E5E"/>
<circle cx="283" cy="233" r="4" fill="#A85E5E"/>
<circle cx="200" cy="131" r="4" fill="#A85E5E"/>
<path d="M55.62 269.128C55.3133 269.128 55.0307 269.093 54.772 269.024C54.5133 268.957 54.2813 268.873 54.076 268.772C53.8733 268.668 53.6987 268.561 53.552 268.452C53.4053 268.343 53.2893 268.247 53.204 268.164L53.868 267.092C53.956 267.169 54.0613 267.256 54.184 267.352C54.3067 267.448 54.444 267.54 54.596 267.628C54.748 267.713 54.912 267.785 55.088 267.844C55.2667 267.9 55.456 267.928 55.656 267.928C55.8427 267.928 56.0067 267.899 56.148 267.84C56.292 267.781 56.4053 267.695 56.488 267.58C56.5707 267.463 56.612 267.317 56.612 267.144C56.612 266.987 56.5787 266.853 56.512 266.744C56.4453 266.632 56.3467 266.532 56.216 266.444C56.088 266.353 55.9293 266.265 55.74 266.18C55.5533 266.092 55.34 265.996 55.1 265.892C54.9213 265.812 54.7507 265.721 54.588 265.62C54.428 265.516 54.2853 265.396 54.16 265.26C54.0347 265.124 53.9347 264.971 53.86 264.8C53.788 264.627 53.752 264.433 53.752 264.22C53.752 263.967 53.8027 263.724 53.904 263.492C54.0053 263.26 54.1493 263.053 54.336 262.872C54.5253 262.691 54.7493 262.547 55.008 262.44C55.2693 262.333 55.56 262.28 55.88 262.28C56.12 262.28 56.36 262.312 56.6 262.376C56.84 262.44 57.064 262.524 57.272 262.628C57.48 262.732 57.656 262.845 57.8 262.968L57.26 263.984C57.1453 263.885 57.0147 263.797 56.868 263.72C56.724 263.64 56.5693 263.576 56.404 263.528C56.2413 263.48 56.076 263.456 55.908 263.456C55.7187 263.456 55.5573 263.489 55.424 263.556C55.2933 263.623 55.192 263.712 55.12 263.824C55.0507 263.933 55.016 264.056 55.016 264.192C55.016 264.304 55.0387 264.4 55.084 264.48C55.132 264.557 55.1987 264.625 55.284 264.684C55.3693 264.74 55.472 264.795 55.592 264.848C55.712 264.899 55.844 264.953 55.988 265.012C56.2973 265.143 56.5773 265.272 56.828 265.4C57.0787 265.528 57.2933 265.671 57.472 265.828C57.6507 265.983 57.7867 266.164 57.88 266.372C57.976 266.58 58.024 266.828 58.024 267.116C58.024 267.537 57.9227 267.899 57.72 268.2C57.52 268.501 57.24 268.732 56.88 268.892C56.52 269.049 56.1 269.128 55.62 269.128ZM60.5891 269.128C60.1811 269.128 59.8638 268.999 59.6371 268.74C59.4105 268.479 59.2971 268.115 59.2971 267.648V265.836H58.7491V264.904H59.2971V263.368H60.5251V264.904H61.4251V265.836H60.5251V267.56C60.5251 267.715 60.5558 267.832 60.6171 267.912C60.6811 267.992 60.7705 268.032 60.8851 268.032C61.0131 268.032 61.1358 267.989 61.2531 267.904L61.5611 268.888C61.4225 268.963 61.2665 269.021 61.0931 269.064C60.9225 269.107 60.7545 269.128 60.5891 269.128ZM63.5264 269.128C63.3771 269.128 63.2411 269.092 63.1184 269.02C62.9984 268.948 62.9024 268.852 62.8304 268.732C62.7611 268.609 62.7264 268.475 62.7264 268.328C62.7264 268.179 62.7611 268.044 62.8304 267.924C62.9024 267.804 62.9998 267.708 63.1224 267.636C63.2451 267.564 63.3798 267.528 63.5264 267.528C63.6758 267.528 63.8104 267.564 63.9304 267.636C64.0504 267.708 64.1464 267.804 64.2184 267.924C64.2904 268.044 64.3264 268.179 64.3264 268.328C64.3264 268.475 64.2904 268.609 64.2184 268.732C64.1464 268.852 64.0504 268.948 63.9304 269.02C63.8104 269.092 63.6758 269.128 63.5264 269.128ZM70.9803 269.128C70.527 269.128 70.1043 269.041 69.7123 268.868C69.3203 268.695 68.9776 268.453 68.6843 268.144C68.391 267.832 68.1616 267.468 67.9963 267.052C67.831 266.636 67.7483 266.185 67.7483 265.7C67.7483 265.236 67.8256 264.799 67.9803 264.388C68.135 263.975 68.3576 263.611 68.6483 263.296C68.939 262.979 69.2896 262.731 69.7003 262.552C70.111 262.371 70.571 262.28 71.0803 262.28C71.3683 262.28 71.6576 262.312 71.9483 262.376C72.2416 262.44 72.523 262.535 72.7923 262.66C73.0616 262.783 73.3043 262.933 73.5203 263.112L72.9123 264.116C72.6803 263.9 72.399 263.733 72.0683 263.616C71.7403 263.496 71.4163 263.436 71.0963 263.436C70.7816 263.436 70.503 263.492 70.2603 263.604C70.0203 263.713 69.8176 263.868 69.6523 264.068C69.487 264.268 69.3616 264.503 69.2763 264.772C69.191 265.039 69.1483 265.329 69.1483 265.644C69.1483 265.988 69.1963 266.3 69.2923 266.58C69.3883 266.86 69.5216 267.101 69.6923 267.304C69.8656 267.507 70.067 267.663 70.2963 267.772C70.5283 267.881 70.7776 267.936 71.0443 267.936C71.2576 267.936 71.463 267.901 71.6603 267.832C71.8603 267.76 72.0376 267.66 72.1923 267.532C72.347 267.404 72.4696 267.253 72.5603 267.08C72.651 266.907 72.6963 266.717 72.6963 266.512V266.412H70.9643V265.408H74.0163V266.408C74.0163 266.811 73.9323 267.179 73.7643 267.512C73.599 267.843 73.3723 268.129 73.0843 268.372C72.7963 268.612 72.471 268.799 72.1083 268.932C71.7456 269.063 71.3696 269.128 70.9803 269.128ZM76.8539 269.128C76.4779 269.128 76.1352 269.035 75.8259 268.848C75.5192 268.659 75.2752 268.4 75.0939 268.072C74.9152 267.741 74.8259 267.365 74.8259 266.944C74.8259 266.533 74.9125 266.165 75.0859 265.84C75.2592 265.512 75.4979 265.253 75.8019 265.064C76.1085 264.872 76.4592 264.776 76.8539 264.776C77.1445 264.776 77.4152 264.832 77.6659 264.944C77.9192 265.053 78.1259 265.207 78.2859 265.404V264.904H79.5139V269H78.2859V268.46C78.0992 268.676 77.8845 268.841 77.6419 268.956C77.3992 269.071 77.1365 269.128 76.8539 269.128ZM77.2179 268.084C77.4312 268.084 77.6205 268.036 77.7859 267.94C77.9512 267.841 78.0805 267.707 78.1739 267.536C78.2672 267.365 78.3139 267.171 78.3139 266.952C78.3139 266.731 78.2659 266.536 78.1699 266.368C78.0765 266.197 77.9472 266.064 77.7819 265.968C77.6192 265.869 77.4312 265.82 77.2179 265.82C77.0072 265.82 76.8192 265.869 76.6539 265.968C76.4885 266.064 76.3579 266.197 76.2619 266.368C76.1659 266.539 76.1179 266.733 76.1179 266.952C76.1179 267.171 76.1645 267.365 76.2579 267.536C76.3539 267.707 76.4845 267.841 76.6499 267.94C76.8152 268.036 77.0045 268.084 77.2179 268.084ZM80.9584 269V262.12H82.1864V269H80.9584ZM83.6303 269V262.12H84.8583V269H83.6303ZM88.2701 269.128C87.8275 269.128 87.4301 269.033 87.0781 268.844C86.7288 268.652 86.4515 268.392 86.2461 268.064C86.0408 267.736 85.9381 267.365 85.9381 266.952C85.9381 266.648 85.9955 266.364 86.1101 266.1C86.2275 265.836 86.3901 265.605 86.5981 265.408C86.8061 265.208 87.0475 265.053 87.3221 264.944C87.5968 264.832 87.8941 264.776 88.2141 264.776C88.6408 264.776 89.0141 264.865 89.3341 265.044C89.6568 265.22 89.9075 265.465 90.0861 265.78C90.2675 266.095 90.3581 266.461 90.3581 266.88C90.3581 266.915 90.3568 266.945 90.3541 266.972C90.3541 266.996 90.3501 267.043 90.3421 267.112H87.2021C87.2021 267.32 87.2488 267.501 87.3421 267.656C87.4381 267.811 87.5715 267.932 87.7421 268.02C87.9128 268.105 88.1115 268.148 88.3381 268.148C88.5515 268.148 88.7395 268.107 88.9021 268.024C89.0675 267.941 89.2261 267.809 89.3781 267.628L90.2621 268.072C90.0701 268.403 89.7981 268.661 89.4461 268.848C89.0941 269.035 88.7021 269.128 88.2701 269.128ZM87.2461 266.432H89.1501C89.1235 266.275 89.0661 266.139 88.9781 266.024C88.8928 265.909 88.7835 265.821 88.6501 265.76C88.5168 265.699 88.3661 265.668 88.1981 265.668C88.0195 265.668 87.8621 265.699 87.7261 265.76C87.5901 265.821 87.4808 265.909 87.3981 266.024C87.3155 266.139 87.2648 266.275 87.2461 266.432ZM91.4506 269V264.904H92.6786V265.36C92.8359 265.184 93.0319 265.043 93.2666 264.936C93.5039 264.829 93.7652 264.776 94.0506 264.776C94.3652 264.776 94.6412 264.845 94.8786 264.984C95.1186 265.12 95.3066 265.311 95.4426 265.556C95.5786 265.799 95.6466 266.083 95.6466 266.408V269H94.4186V266.668C94.4186 266.375 94.3412 266.147 94.1866 265.984C94.0346 265.819 93.8252 265.736 93.5586 265.736C93.3772 265.736 93.2199 265.773 93.0866 265.848C92.9559 265.92 92.8546 266.02 92.7826 266.148C92.7132 266.273 92.6786 266.416 92.6786 266.576V269H91.4506Z" fill="black"/>
<path d="M136.556 260V253.4H138.448C139.083 253.4 139.58 253.539 139.94 253.816C140.3 254.093 140.48 254.508 140.48 255.06C140.48 255.745 140.197 256.229 139.632 256.512C140.093 256.584 140.447 256.761 140.692 257.044C140.94 257.324 141.064 257.692 141.064 258.148C141.064 258.532 140.977 258.863 140.804 259.14C140.631 259.417 140.384 259.631 140.064 259.78C139.744 259.927 139.365 260 138.928 260H136.556ZM137.848 256.072H138.148C138.497 256.072 138.765 256 138.952 255.856C139.139 255.709 139.232 255.5 139.232 255.228C139.232 254.953 139.141 254.748 138.96 254.612C138.779 254.473 138.508 254.404 138.148 254.404H137.848V256.072ZM137.848 258.992H138.488C138.893 258.992 139.197 258.917 139.4 258.768C139.605 258.619 139.708 258.399 139.708 258.108C139.708 257.812 139.603 257.585 139.392 257.428C139.184 257.268 138.883 257.188 138.488 257.188H137.848V258.992ZM142.021 260V255.904H143.249V256.492C143.401 256.263 143.586 256.087 143.805 255.964C144.026 255.839 144.264 255.776 144.517 255.776C144.661 255.776 144.81 255.797 144.965 255.84C145.12 255.883 145.249 255.937 145.353 256.004L144.841 257.04C144.75 256.979 144.644 256.931 144.521 256.896C144.401 256.859 144.289 256.84 144.185 256.84C144.025 256.84 143.873 256.881 143.729 256.964C143.585 257.047 143.469 257.155 143.381 257.288C143.293 257.419 143.249 257.56 143.249 257.712V260H142.021ZM147.958 260.128C147.515 260.128 147.118 260.033 146.766 259.844C146.416 259.652 146.139 259.392 145.934 259.064C145.728 258.736 145.626 258.365 145.626 257.952C145.626 257.648 145.683 257.364 145.798 257.1C145.915 256.836 146.078 256.605 146.286 256.408C146.494 256.208 146.735 256.053 147.01 255.944C147.284 255.832 147.582 255.776 147.902 255.776C148.328 255.776 148.702 255.865 149.022 256.044C149.344 256.22 149.595 256.465 149.774 256.78C149.955 257.095 150.046 257.461 150.046 257.88C150.046 257.915 150.044 257.945 150.042 257.972C150.042 257.996 150.038 258.043 150.03 258.112H146.89C146.89 258.32 146.936 258.501 147.03 258.656C147.126 258.811 147.259 258.932 147.43 259.02C147.6 259.105 147.799 259.148 148.026 259.148C148.239 259.148 148.427 259.107 148.59 259.024C148.755 258.941 148.914 258.809 149.066 258.628L149.95 259.072C149.758 259.403 149.486 259.661 149.134 259.848C148.782 260.035 148.39 260.128 147.958 260.128ZM146.934 257.432H148.838C148.811 257.275 148.754 257.139 148.666 257.024C148.58 256.909 148.471 256.821 148.338 256.76C148.204 256.699 148.054 256.668 147.886 256.668C147.707 256.668 147.55 256.699 147.414 256.76C147.278 256.821 147.168 256.909 147.086 257.024C147.003 257.139 146.952 257.275 146.934 257.432ZM153.126 262.2C152.574 262.2 152.11 262.099 151.734 261.896C151.358 261.696 151.084 261.4 150.914 261.008L151.914 260.52C152.026 260.709 152.191 260.86 152.41 260.972C152.628 261.084 152.866 261.14 153.122 261.14C153.354 261.14 153.558 261.093 153.734 261C153.91 260.909 154.047 260.78 154.146 260.612C154.244 260.447 154.294 260.255 154.294 260.036V259.46C154.112 259.671 153.898 259.835 153.65 259.952C153.402 260.069 153.135 260.128 152.85 260.128C152.479 260.128 152.14 260.036 151.834 259.852C151.53 259.665 151.287 259.408 151.106 259.08C150.924 258.752 150.834 258.376 150.834 257.952C150.834 257.536 150.922 257.165 151.098 256.84C151.276 256.512 151.519 256.253 151.826 256.064C152.135 255.872 152.487 255.776 152.882 255.776C153.17 255.776 153.436 255.832 153.682 255.944C153.927 256.053 154.131 256.207 154.294 256.404V255.904H155.522V260.112C155.522 260.515 155.434 260.873 155.258 261.188C155.084 261.503 154.82 261.749 154.466 261.928C154.111 262.109 153.664 262.2 153.126 262.2ZM153.218 259.084C153.434 259.084 153.624 259.036 153.79 258.94C153.958 258.841 154.088 258.708 154.182 258.54C154.275 258.369 154.322 258.176 154.322 257.96C154.322 257.739 154.274 257.543 154.178 257.372C154.084 257.201 153.955 257.067 153.79 256.968C153.624 256.869 153.436 256.82 153.226 256.82C153.015 256.82 152.827 256.869 152.662 256.968C152.496 257.067 152.366 257.203 152.27 257.376C152.174 257.547 152.126 257.741 152.126 257.96C152.126 258.176 152.172 258.369 152.266 258.54C152.359 258.708 152.488 258.841 152.654 258.94C152.819 259.036 153.007 259.084 153.218 259.084ZM158.895 260.128C158.452 260.128 158.055 260.033 157.703 259.844C157.354 259.652 157.076 259.392 156.871 259.064C156.666 258.736 156.563 258.365 156.563 257.952C156.563 257.648 156.62 257.364 156.735 257.1C156.852 256.836 157.015 256.605 157.223 256.408C157.431 256.208 157.672 256.053 157.947 255.944C158.222 255.832 158.519 255.776 158.839 255.776C159.266 255.776 159.639 255.865 159.959 256.044C160.282 256.22 160.532 256.465 160.711 256.78C160.892 257.095 160.983 257.461 160.983 257.88C160.983 257.915 160.982 257.945 160.979 257.972C160.979 257.996 160.975 258.043 160.967 258.112H157.827C157.827 258.32 157.874 258.501 157.967 258.656C158.063 258.811 158.196 258.932 158.367 259.02C158.538 259.105 158.736 259.148 158.963 259.148C159.176 259.148 159.364 259.107 159.527 259.024C159.692 258.941 159.851 258.809 160.003 258.628L160.887 259.072C160.695 259.403 160.423 259.661 160.071 259.848C159.719 260.035 159.327 260.128 158.895 260.128ZM157.871 257.432H159.775C159.748 257.275 159.691 257.139 159.603 257.024C159.518 256.909 159.408 256.821 159.275 256.76C159.142 256.699 158.991 256.668 158.823 256.668C158.644 256.668 158.487 256.699 158.351 256.76C158.215 256.821 158.106 256.909 158.023 257.024C157.94 257.139 157.89 257.275 157.871 257.432ZM162.076 260V255.904H163.304V256.36C163.461 256.184 163.657 256.043 163.892 255.936C164.129 255.829 164.39 255.776 164.676 255.776C164.99 255.776 165.266 255.845 165.504 255.984C165.744 256.12 165.932 256.311 166.068 256.556C166.204 256.799 166.272 257.083 166.272 257.408V260H165.044V257.668C165.044 257.375 164.966 257.147 164.812 256.984C164.66 256.819 164.45 256.736 164.184 256.736C164.002 256.736 163.845 256.773 163.712 256.848C163.581 256.92 163.48 257.02 163.408 257.148C163.338 257.273 163.304 257.416 163.304 257.576V260H162.076ZM167.082 260L169.346 256.84H167.414V255.904H171.414L169.15 259.064H171.274V260H167.082Z" fill="black"/>
<path d="M140.9 217V210.4H142.196V215.864H144.58V217H140.9ZM145.454 217V212.904H146.682V217H145.454ZM146.07 212.052C145.937 212.052 145.814 212.02 145.702 211.956C145.593 211.889 145.505 211.8 145.438 211.688C145.372 211.576 145.338 211.453 145.338 211.32C145.338 211.187 145.372 211.065 145.438 210.956C145.505 210.847 145.593 210.76 145.702 210.696C145.814 210.629 145.937 210.596 146.07 210.596C146.204 210.596 146.325 210.629 146.434 210.696C146.544 210.76 146.63 210.847 146.694 210.956C146.761 211.065 146.794 211.187 146.794 211.32C146.794 211.453 146.761 211.576 146.694 211.688C146.63 211.8 146.544 211.889 146.434 211.956C146.325 212.02 146.204 212.052 146.07 212.052ZM148.13 217V212.904H149.358V213.36C149.516 213.184 149.712 213.043 149.946 212.936C150.184 212.829 150.445 212.776 150.73 212.776C151.045 212.776 151.321 212.845 151.558 212.984C151.798 213.12 151.986 213.311 152.122 213.556C152.258 213.799 152.326 214.083 152.326 214.408V217H151.098V214.668C151.098 214.375 151.021 214.147 150.866 213.984C150.714 213.819 150.505 213.736 150.238 213.736C150.057 213.736 149.9 213.773 149.766 213.848C149.636 213.92 149.534 214.02 149.462 214.148C149.393 214.273 149.358 214.416 149.358 214.576V217H148.13ZM155.389 217.128C155.018 217.128 154.679 217.036 154.373 216.852C154.069 216.665 153.826 216.408 153.645 216.08C153.463 215.752 153.373 215.376 153.373 214.952C153.373 214.536 153.461 214.165 153.637 213.84C153.813 213.512 154.054 213.253 154.361 213.064C154.67 212.872 155.023 212.776 155.421 212.776C155.709 212.776 155.975 212.832 156.221 212.944C156.466 213.053 156.67 213.207 156.833 213.404V210.12H158.061V217H156.833V216.46C156.651 216.671 156.437 216.835 156.189 216.952C155.941 217.069 155.674 217.128 155.389 217.128ZM155.757 216.084C155.973 216.084 156.163 216.036 156.329 215.94C156.494 215.841 156.623 215.707 156.717 215.536C156.813 215.365 156.861 215.172 156.861 214.956C156.861 214.737 156.813 214.543 156.717 214.372C156.623 214.201 156.494 214.067 156.329 213.968C156.163 213.869 155.974 213.82 155.761 213.82C155.55 213.82 155.362 213.869 155.197 213.968C155.034 214.067 154.905 214.203 154.809 214.376C154.713 214.547 154.665 214.741 154.665 214.96C154.665 215.176 154.711 215.369 154.805 215.54C154.898 215.708 155.027 215.841 155.193 215.94C155.358 216.036 155.546 216.084 155.757 216.084ZM161.213 217.128C160.837 217.128 160.495 217.035 160.185 216.848C159.879 216.659 159.635 216.4 159.453 216.072C159.275 215.741 159.185 215.365 159.185 214.944C159.185 214.533 159.272 214.165 159.445 213.84C159.619 213.512 159.857 213.253 160.161 213.064C160.468 212.872 160.819 212.776 161.213 212.776C161.504 212.776 161.775 212.832 162.025 212.944C162.279 213.053 162.485 213.207 162.645 213.404V212.904H163.873V217H162.645V216.46C162.459 216.676 162.244 216.841 162.001 216.956C161.759 217.071 161.496 217.128 161.213 217.128ZM161.577 216.084C161.791 216.084 161.98 216.036 162.145 215.94C162.311 215.841 162.44 215.707 162.533 215.536C162.627 215.365 162.673 215.171 162.673 214.952C162.673 214.731 162.625 214.536 162.529 214.368C162.436 214.197 162.307 214.064 162.141 213.968C161.979 213.869 161.791 213.82 161.577 213.82C161.367 213.82 161.179 213.869 161.013 213.968C160.848 214.064 160.717 214.197 160.621 214.368C160.525 214.539 160.477 214.733 160.477 214.952C160.477 215.171 160.524 215.365 160.617 215.536C160.713 215.707 160.844 215.841 161.009 215.94C161.175 216.036 161.364 216.084 161.577 216.084ZM167.326 217.128C166.579 217.128 166.04 216.98 165.71 216.684C165.379 216.388 165.214 215.904 165.214 215.232V212.904H166.442V214.944C166.442 215.376 166.508 215.681 166.642 215.86C166.778 216.039 167.006 216.128 167.326 216.128C167.651 216.128 167.879 216.039 168.01 215.86C168.143 215.681 168.21 215.376 168.21 214.944V212.904H169.438V215.232C169.438 215.904 169.272 216.388 168.942 216.684C168.614 216.98 168.075 217.128 167.326 217.128Z" fill="black"/>
<path d="M226.62 257.128C226.313 257.128 226.031 257.093 225.772 257.024C225.513 256.957 225.281 256.873 225.076 256.772C224.873 256.668 224.699 256.561 224.552 256.452C224.405 256.343 224.289 256.247 224.204 256.164L224.868 255.092C224.956 255.169 225.061 255.256 225.184 255.352C225.307 255.448 225.444 255.54 225.596 255.628C225.748 255.713 225.912 255.785 226.088 255.844C226.267 255.9 226.456 255.928 226.656 255.928C226.843 255.928 227.007 255.899 227.148 255.84C227.292 255.781 227.405 255.695 227.488 255.58C227.571 255.463 227.612 255.317 227.612 255.144C227.612 254.987 227.579 254.853 227.512 254.744C227.445 254.632 227.347 254.532 227.216 254.444C227.088 254.353 226.929 254.265 226.74 254.18C226.553 254.092 226.34 253.996 226.1 253.892C225.921 253.812 225.751 253.721 225.588 253.62C225.428 253.516 225.285 253.396 225.16 253.26C225.035 253.124 224.935 252.971 224.86 252.8C224.788 252.627 224.752 252.433 224.752 252.22C224.752 251.967 224.803 251.724 224.904 251.492C225.005 251.26 225.149 251.053 225.336 250.872C225.525 250.691 225.749 250.547 226.008 250.44C226.269 250.333 226.56 250.28 226.88 250.28C227.12 250.28 227.36 250.312 227.6 250.376C227.84 250.44 228.064 250.524 228.272 250.628C228.48 250.732 228.656 250.845 228.8 250.968L228.26 251.984C228.145 251.885 228.015 251.797 227.868 251.72C227.724 251.64 227.569 251.576 227.404 251.528C227.241 251.48 227.076 251.456 226.908 251.456C226.719 251.456 226.557 251.489 226.424 251.556C226.293 251.623 226.192 251.712 226.12 251.824C226.051 251.933 226.016 252.056 226.016 252.192C226.016 252.304 226.039 252.4 226.084 252.48C226.132 252.557 226.199 252.625 226.284 252.684C226.369 252.74 226.472 252.795 226.592 252.848C226.712 252.899 226.844 252.953 226.988 253.012C227.297 253.143 227.577 253.272 227.828 253.4C228.079 253.528 228.293 253.671 228.472 253.828C228.651 253.983 228.787 254.164 228.88 254.372C228.976 254.58 229.024 254.828 229.024 255.116C229.024 255.537 228.923 255.899 228.72 256.2C228.52 256.501 228.24 256.732 227.88 256.892C227.52 257.049 227.1 257.128 226.62 257.128ZM232.217 257.128C231.766 257.128 231.36 257.036 230.997 256.852C230.634 256.665 230.346 256.409 230.133 256.084C229.92 255.756 229.813 255.379 229.813 254.952C229.813 254.525 229.918 254.149 230.129 253.824C230.342 253.496 230.63 253.24 230.993 253.056C231.358 252.869 231.766 252.776 232.217 252.776C232.67 252.776 233.078 252.869 233.441 253.056C233.804 253.24 234.09 253.496 234.301 253.824C234.514 254.149 234.621 254.525 234.621 254.952C234.621 255.379 234.514 255.756 234.301 256.084C234.09 256.409 233.804 256.665 233.441 256.852C233.078 257.036 232.67 257.128 232.217 257.128ZM232.221 256.08C232.429 256.08 232.618 256.032 232.789 255.936C232.96 255.84 233.094 255.708 233.193 255.54C233.292 255.369 233.341 255.173 233.341 254.952C233.341 254.731 233.292 254.536 233.193 254.368C233.094 254.197 232.96 254.064 232.789 253.968C232.618 253.872 232.429 253.824 232.221 253.824C232.01 253.824 231.82 253.872 231.649 253.968C231.481 254.064 231.348 254.197 231.249 254.368C231.15 254.536 231.101 254.731 231.101 254.952C231.101 255.173 231.15 255.369 231.249 255.54C231.348 255.708 231.481 255.84 231.649 255.936C231.82 256.032 232.01 256.08 232.221 256.08ZM235.693 257V252.904H236.921V253.36C237.078 253.184 237.274 253.043 237.509 252.936C237.746 252.829 238.007 252.776 238.293 252.776C238.607 252.776 238.883 252.845 239.121 252.984C239.361 253.12 239.549 253.311 239.685 253.556C239.821 253.799 239.889 254.083 239.889 254.408V257H238.661V254.668C238.661 254.375 238.583 254.147 238.429 253.984C238.277 253.819 238.067 253.736 237.801 253.736C237.619 253.736 237.462 253.773 237.329 253.848C237.198 253.92 237.097 254.02 237.025 254.148C236.955 254.273 236.921 254.416 236.921 254.576V257H235.693ZM242.62 257.128C242.212 257.128 241.895 256.999 241.668 256.74C241.442 256.479 241.328 256.115 241.328 255.648V253.836H240.78V252.904H241.328V251.368H242.556V252.904H243.456V253.836H242.556V255.56C242.556 255.715 242.587 255.832 242.648 255.912C242.712 255.992 242.802 256.032 242.916 256.032C243.044 256.032 243.167 255.989 243.284 255.904L243.592 256.888C243.454 256.963 243.298 257.021 243.124 257.064C242.954 257.107 242.786 257.128 242.62 257.128ZM244.654 257V250.12H245.882V253.36C246.039 253.184 246.235 253.043 246.47 252.936C246.707 252.829 246.968 252.776 247.254 252.776C247.568 252.776 247.844 252.845 248.082 252.984C248.322 253.12 248.51 253.311 248.646 253.556C248.782 253.799 248.85 254.083 248.85 254.408V257H247.622V254.668C247.622 254.375 247.544 254.147 247.39 253.984C247.238 253.819 247.028 253.736 246.762 253.736C246.58 253.736 246.423 253.773 246.29 253.848C246.159 253.92 246.058 254.02 245.986 254.148C245.916 254.273 245.882 254.416 245.882 254.576V257H244.654ZM252.256 257.128C251.806 257.128 251.399 257.036 251.036 256.852C250.674 256.665 250.386 256.409 250.172 256.084C249.959 255.756 249.852 255.379 249.852 254.952C249.852 254.525 249.958 254.149 250.168 253.824C250.382 253.496 250.67 253.24 251.032 253.056C251.398 252.869 251.806 252.776 252.256 252.776C252.71 252.776 253.118 252.869 253.48 253.056C253.843 253.24 254.13 253.496 254.34 253.824C254.554 254.149 254.66 254.525 254.66 254.952C254.66 255.379 254.554 255.756 254.34 256.084C254.13 256.409 253.843 256.665 253.48 256.852C253.118 257.036 252.71 257.128 252.256 257.128ZM252.26 256.08C252.468 256.08 252.658 256.032 252.828 255.936C252.999 255.84 253.134 255.708 253.232 255.54C253.331 255.369 253.38 255.173 253.38 254.952C253.38 254.731 253.331 254.536 253.232 254.368C253.134 254.197 252.999 254.064 252.828 253.968C252.658 253.872 252.468 253.824 252.26 253.824C252.05 253.824 251.859 253.872 251.688 253.968C251.52 254.064 251.387 254.197 251.288 254.368C251.19 254.536 251.14 254.731 251.14 254.952C251.14 255.173 251.19 255.369 251.288 255.54C251.387 255.708 251.52 255.84 251.688 255.936C251.859 256.032 252.05 256.08 252.26 256.08ZM255.884 257V253.836H255.336V252.904H255.884V251.888C255.884 251.504 255.944 251.171 256.064 250.888C256.187 250.603 256.36 250.384 256.584 250.232C256.808 250.077 257.079 250 257.396 250C257.594 250 257.787 250.031 257.976 250.092C258.166 250.151 258.327 250.233 258.46 250.34L258.036 251.2C257.911 251.123 257.768 251.084 257.608 251.084C257.47 251.084 257.364 251.12 257.292 251.192C257.223 251.261 257.175 251.359 257.148 251.484C257.124 251.607 257.112 251.751 257.112 251.916V252.904H258.08V253.836H257.112V257H255.884ZM260.958 257.128C260.515 257.128 260.118 257.033 259.766 256.844C259.416 256.652 259.139 256.392 258.934 256.064C258.728 255.736 258.626 255.365 258.626 254.952C258.626 254.648 258.683 254.364 258.798 254.1C258.915 253.836 259.078 253.605 259.286 253.408C259.494 253.208 259.735 253.053 260.01 252.944C260.284 252.832 260.582 252.776 260.902 252.776C261.328 252.776 261.702 252.865 262.022 253.044C262.344 253.22 262.595 253.465 262.774 253.78C262.955 254.095 263.046 254.461 263.046 254.88C263.046 254.915 263.044 254.945 263.042 254.972C263.042 254.996 263.038 255.043 263.03 255.112H259.89C259.89 255.32 259.936 255.501 260.03 255.656C260.126 255.811 260.259 255.932 260.43 256.02C260.6 256.105 260.799 256.148 261.026 256.148C261.239 256.148 261.427 256.107 261.59 256.024C261.755 255.941 261.914 255.809 262.066 255.628L262.95 256.072C262.758 256.403 262.486 256.661 262.134 256.848C261.782 257.035 261.39 257.128 260.958 257.128ZM259.934 254.432H261.838C261.811 254.275 261.754 254.139 261.666 254.024C261.58 253.909 261.471 253.821 261.338 253.76C261.204 253.699 261.054 253.668 260.886 253.668C260.707 253.668 260.55 253.699 260.414 253.76C260.278 253.821 260.168 253.909 260.086 254.024C260.003 254.139 259.952 254.275 259.934 254.432ZM264.138 257V252.904H265.366V253.36C265.523 253.184 265.719 253.043 265.954 252.936C266.191 252.829 266.453 252.776 266.738 252.776C267.053 252.776 267.329 252.845 267.566 252.984C267.806 253.12 267.994 253.311 268.13 253.556C268.266 253.799 268.334 254.083 268.334 254.408V257H267.106V254.668C267.106 254.375 267.029 254.147 266.874 253.984C266.722 253.819 266.513 253.736 266.246 253.736C266.065 253.736 265.907 253.773 265.774 253.848C265.643 253.92 265.542 254.02 265.47 254.148C265.401 254.273 265.366 254.416 265.366 254.576V257H264.138Z" fill="black"/>
<path d="M218.9 235V228.4H220.196V235H218.9ZM221.826 235V230.904H223.054V231.36C223.256 231.157 223.458 231.009 223.658 230.916C223.858 230.823 224.074 230.776 224.306 230.776C224.62 230.776 224.904 230.847 225.158 230.988C225.411 231.129 225.592 231.319 225.702 231.556C225.902 231.297 226.116 231.103 226.346 230.972C226.575 230.841 226.838 230.776 227.134 230.776C227.43 230.776 227.692 230.837 227.922 230.96C228.151 231.083 228.331 231.257 228.462 231.484C228.595 231.708 228.662 231.973 228.662 232.28V235H227.434V232.616C227.434 232.349 227.364 232.14 227.226 231.988C227.087 231.833 226.902 231.756 226.67 231.756C226.51 231.756 226.368 231.789 226.246 231.856C226.126 231.923 226.031 232.012 225.962 232.124C225.892 232.236 225.858 232.36 225.858 232.496V235H224.63V232.592C224.63 232.339 224.562 232.136 224.426 231.984C224.292 231.832 224.107 231.756 223.87 231.756C223.712 231.756 223.571 231.789 223.446 231.856C223.323 231.923 223.227 232.013 223.158 232.128C223.088 232.243 223.054 232.369 223.054 232.508V235H221.826ZM230.044 235V230.904H231.272V231.36C231.475 231.157 231.676 231.009 231.876 230.916C232.076 230.823 232.292 230.776 232.524 230.776C232.839 230.776 233.123 230.847 233.376 230.988C233.63 231.129 233.811 231.319 233.92 231.556C234.12 231.297 234.335 231.103 234.564 230.972C234.794 230.841 235.056 230.776 235.352 230.776C235.648 230.776 235.911 230.837 236.14 230.96C236.37 231.083 236.55 231.257 236.68 231.484C236.814 231.708 236.88 231.973 236.88 232.28V235H235.652V232.616C235.652 232.349 235.583 232.14 235.444 231.988C235.306 231.833 235.12 231.756 234.888 231.756C234.728 231.756 234.587 231.789 234.464 231.856C234.344 231.923 234.25 232.012 234.18 232.124C234.111 232.236 234.076 232.36 234.076 232.496V235H232.848V232.592C232.848 232.339 232.78 232.136 232.644 231.984C232.511 231.832 232.326 231.756 232.088 231.756C231.931 231.756 231.79 231.789 231.664 231.856C231.542 231.923 231.446 232.013 231.376 232.128C231.307 232.243 231.272 232.369 231.272 232.508V235H230.044ZM240.231 235.128C239.788 235.128 239.391 235.033 239.039 234.844C238.69 234.652 238.412 234.392 238.207 234.064C238.002 233.736 237.899 233.365 237.899 232.952C237.899 232.648 237.956 232.364 238.071 232.1C238.188 231.836 238.351 231.605 238.559 231.408C238.767 231.208 239.008 231.053 239.283 230.944C239.558 230.832 239.855 230.776 240.175 230.776C240.602 230.776 240.975 230.865 241.295 231.044C241.618 231.22 241.868 231.465 242.047 231.78C242.228 232.095 242.319 232.461 242.319 232.88C242.319 232.915 242.318 232.945 242.315 232.972C242.315 232.996 242.311 233.043 242.303 233.112H239.163C239.163 233.32 239.21 233.501 239.303 233.656C239.399 233.811 239.532 233.932 239.703 234.02C239.874 234.105 240.072 234.148 240.299 234.148C240.512 234.148 240.7 234.107 240.863 234.024C241.028 233.941 241.187 233.809 241.339 233.628L242.223 234.072C242.031 234.403 241.759 234.661 241.407 234.848C241.055 235.035 240.663 235.128 240.231 235.128ZM239.207 232.432H241.111C241.084 232.275 241.027 232.139 240.939 232.024C240.854 231.909 240.744 231.821 240.611 231.76C240.478 231.699 240.327 231.668 240.159 231.668C239.98 231.668 239.823 231.699 239.687 231.76C239.551 231.821 239.442 231.909 239.359 232.024C239.276 232.139 239.226 232.275 239.207 232.432ZM243.412 235V230.904H244.64V231.36C244.797 231.184 244.993 231.043 245.228 230.936C245.465 230.829 245.726 230.776 246.012 230.776C246.326 230.776 246.602 230.845 246.84 230.984C247.08 231.12 247.268 231.311 247.404 231.556C247.54 231.799 247.608 232.083 247.608 232.408V235H246.38V232.668C246.38 232.375 246.302 232.147 246.148 231.984C245.996 231.819 245.786 231.736 245.52 231.736C245.338 231.736 245.181 231.773 245.048 231.848C244.917 231.92 244.816 232.02 244.743 232.148C244.674 232.273 244.64 232.416 244.64 232.576V235H243.412ZM250.095 235.128C249.748 235.128 249.438 235.073 249.163 234.964C248.891 234.855 248.664 234.695 248.483 234.484L248.999 233.66C249.17 233.841 249.348 233.98 249.535 234.076C249.722 234.172 249.908 234.22 250.095 234.22C250.199 234.22 250.288 234.203 250.363 234.168C250.44 234.133 250.5 234.084 250.543 234.02C250.588 233.953 250.611 233.873 250.611 233.78C250.611 233.673 250.58 233.589 250.519 233.528C250.46 233.467 250.37 233.411 250.247 233.36C250.124 233.307 249.966 233.24 249.771 233.16C249.606 233.091 249.447 233.012 249.295 232.924C249.143 232.836 249.019 232.724 248.923 232.588C248.83 232.452 248.783 232.28 248.783 232.072C248.783 231.819 248.854 231.596 248.995 231.404C249.136 231.209 249.331 231.057 249.579 230.948C249.83 230.839 250.118 230.784 250.443 230.784C250.646 230.784 250.858 230.815 251.079 230.876C251.303 230.937 251.542 231.031 251.795 231.156L251.375 231.944C251.031 231.723 250.723 231.612 250.451 231.612C250.299 231.612 250.178 231.645 250.087 231.712C249.996 231.779 249.951 231.863 249.951 231.964C249.951 232.06 249.998 232.144 250.091 232.216C250.187 232.285 250.303 232.348 250.439 232.404C250.578 232.457 250.71 232.507 250.835 232.552C251.04 232.627 251.222 232.709 251.379 232.8C251.539 232.891 251.664 233.009 251.755 233.156C251.846 233.3 251.891 233.493 251.891 233.736C251.891 234.032 251.819 234.284 251.675 234.492C251.534 234.697 251.328 234.855 251.059 234.964C250.792 235.073 250.471 235.128 250.095 235.128ZM254.37 235.128C253.962 235.128 253.645 234.999 253.418 234.74C253.192 234.479 253.078 234.115 253.078 233.648V231.836H252.53V230.904H253.078V229.368H254.306V230.904H255.206V231.836H254.306V233.56C254.306 233.715 254.337 233.832 254.398 233.912C254.462 233.992 254.552 234.032 254.666 234.032C254.794 234.032 254.917 233.989 255.034 233.904L255.342 234.888C255.204 234.963 255.048 235.021 254.874 235.064C254.704 235.107 254.536 235.128 254.37 235.128ZM258.096 235.128C257.72 235.128 257.377 235.035 257.068 234.848C256.761 234.659 256.517 234.4 256.336 234.072C256.157 233.741 256.068 233.365 256.068 232.944C256.068 232.533 256.155 232.165 256.328 231.84C256.501 231.512 256.74 231.253 257.044 231.064C257.351 230.872 257.701 230.776 258.096 230.776C258.387 230.776 258.657 230.832 258.908 230.944C259.161 231.053 259.368 231.207 259.528 231.404V230.904H260.756V235H259.528V234.46C259.341 234.676 259.127 234.841 258.884 234.956C258.641 235.071 258.379 235.128 258.096 235.128ZM258.46 234.084C258.673 234.084 258.863 234.036 259.028 233.94C259.193 233.841 259.323 233.707 259.416 233.536C259.509 233.365 259.556 233.171 259.556 232.952C259.556 232.731 259.508 232.536 259.412 232.368C259.319 232.197 259.189 232.064 259.024 231.968C258.861 231.869 258.673 231.82 258.46 231.82C258.249 231.82 258.061 231.869 257.896 231.968C257.731 232.064 257.6 232.197 257.504 232.368C257.408 232.539 257.36 232.733 257.36 232.952C257.36 233.171 257.407 233.365 257.5 233.536C257.596 233.707 257.727 233.841 257.892 233.94C258.057 234.036 258.247 234.084 258.46 234.084ZM263.897 235.128C263.526 235.128 263.187 235.036 262.881 234.852C262.577 234.665 262.334 234.408 262.153 234.08C261.971 233.752 261.881 233.376 261.881 232.952C261.881 232.536 261.969 232.165 262.145 231.84C262.321 231.512 262.562 231.253 262.869 231.064C263.178 230.872 263.531 230.776 263.929 230.776C264.217 230.776 264.483 230.832 264.729 230.944C264.974 231.053 265.178 231.207 265.341 231.404V228.12H266.569V235H265.341V234.46C265.159 234.671 264.945 234.835 264.697 234.952C264.449 235.069 264.182 235.128 263.897 235.128ZM264.265 234.084C264.481 234.084 264.671 234.036 264.837 233.94C265.002 233.841 265.131 233.707 265.225 233.536C265.321 233.365 265.369 233.172 265.369 232.956C265.369 232.737 265.321 232.543 265.225 232.372C265.131 232.201 265.002 232.067 264.837 231.968C264.671 231.869 264.482 231.82 264.269 231.82C264.058 231.82 263.87 231.869 263.705 231.968C263.542 232.067 263.413 232.203 263.317 232.376C263.221 232.547 263.173 232.741 263.173 232.96C263.173 233.176 263.219 233.369 263.313 233.54C263.406 233.708 263.535 233.841 263.701 233.94C263.866 234.036 264.054 234.084 264.265 234.084ZM269.425 235.128C269.017 235.128 268.7 234.999 268.473 234.74C268.246 234.479 268.133 234.115 268.133 233.648V231.836H267.585V230.904H268.133V229.368H269.361V230.904H270.261V231.836H269.361V233.56C269.361 233.715 269.392 233.832 269.453 233.912C269.517 233.992 269.606 234.032 269.721 234.032C269.849 234.032 269.972 233.989 270.089 233.904L270.397 234.888C270.258 234.963 270.102 235.021 269.929 235.064C269.758 235.107 269.59 235.128 269.425 235.128Z" fill="black"/>
<path d="M234.9 192V185.4H236.196V188.152L238.616 185.4H240.2L237.384 188.576L240.6 192H238.808L236.196 189.212V192H234.9ZM242.997 192.128C242.554 192.128 242.157 192.033 241.805 191.844C241.455 191.652 241.178 191.392 240.973 191.064C240.767 190.736 240.665 190.365 240.665 189.952C240.665 189.648 240.722 189.364 240.837 189.1C240.954 188.836 241.117 188.605 241.325 188.408C241.533 188.208 241.774 188.053 242.049 187.944C242.323 187.832 242.621 187.776 242.941 187.776C243.367 187.776 243.741 187.865 244.061 188.044C244.383 188.22 244.634 188.465 244.813 188.78C244.994 189.095 245.085 189.461 245.085 189.88C245.085 189.915 245.083 189.945 245.081 189.972C245.081 189.996 245.077 190.043 245.069 190.112H241.929C241.929 190.32 241.975 190.501 242.069 190.656C242.165 190.811 242.298 190.932 242.469 191.02C242.639 191.105 242.838 191.148 243.065 191.148C243.278 191.148 243.466 191.107 243.629 191.024C243.794 190.941 243.953 190.809 244.105 190.628L244.989 191.072C244.797 191.403 244.525 191.661 244.173 191.848C243.821 192.035 243.429 192.128 242.997 192.128ZM241.973 189.432H243.877C243.85 189.275 243.793 189.139 243.705 189.024C243.619 188.909 243.51 188.821 243.377 188.76C243.243 188.699 243.093 188.668 242.925 188.668C242.746 188.668 242.589 188.699 242.453 188.76C242.317 188.821 242.207 188.909 242.125 189.024C242.042 189.139 241.991 189.275 241.973 189.432ZM246.177 192V187.904H247.405V188.36C247.608 188.157 247.809 188.009 248.009 187.916C248.209 187.823 248.425 187.776 248.657 187.776C248.972 187.776 249.256 187.847 249.509 187.988C249.762 188.129 249.944 188.319 250.053 188.556C250.253 188.297 250.468 188.103 250.697 187.972C250.926 187.841 251.189 187.776 251.485 187.776C251.781 187.776 252.044 187.837 252.273 187.96C252.502 188.083 252.682 188.257 252.813 188.484C252.946 188.708 253.013 188.973 253.013 189.28V192H251.785V189.616C251.785 189.349 251.716 189.14 251.577 188.988C251.438 188.833 251.253 188.756 251.021 188.756C250.861 188.756 250.72 188.789 250.597 188.856C250.477 188.923 250.382 189.012 250.313 189.124C250.244 189.236 250.209 189.36 250.209 189.496V192H248.981V189.592C248.981 189.339 248.913 189.136 248.777 188.984C248.644 188.832 248.458 188.756 248.221 188.756C248.064 188.756 247.922 188.789 247.797 188.856C247.674 188.923 247.578 189.013 247.509 189.128C247.44 189.243 247.405 189.369 247.405 189.508V192H246.177ZM254.396 194.08V187.904H255.624V188.404C255.789 188.204 255.995 188.049 256.24 187.94C256.485 187.831 256.749 187.776 257.032 187.776C257.427 187.776 257.777 187.871 258.084 188.06C258.393 188.249 258.636 188.508 258.812 188.836C258.991 189.164 259.08 189.536 259.08 189.952C259.08 190.363 258.992 190.733 258.816 191.064C258.64 191.392 258.399 191.652 258.092 191.844C257.788 192.033 257.444 192.128 257.06 192.128C256.78 192.128 256.516 192.071 256.268 191.956C256.02 191.839 255.805 191.673 255.624 191.46V194.08H254.396ZM256.696 191.084C256.909 191.084 257.097 191.036 257.26 190.94C257.425 190.841 257.555 190.708 257.648 190.54C257.741 190.369 257.788 190.175 257.788 189.956C257.788 189.737 257.74 189.543 257.644 189.372C257.548 189.201 257.419 189.067 257.256 188.968C257.093 188.869 256.907 188.82 256.696 188.82C256.485 188.82 256.296 188.869 256.128 188.968C255.963 189.067 255.832 189.201 255.736 189.372C255.64 189.54 255.592 189.735 255.592 189.956C255.592 190.172 255.639 190.365 255.732 190.536C255.828 190.707 255.96 190.841 256.128 190.94C256.296 191.036 256.485 191.084 256.696 191.084ZM261.574 192.128C261.166 192.128 260.848 191.999 260.622 191.74C260.395 191.479 260.282 191.115 260.282 190.648V188.836H259.734V187.904H260.282V186.368H261.51V187.904H262.41V188.836H261.51V190.56C261.51 190.715 261.54 190.832 261.602 190.912C261.666 190.992 261.755 191.032 261.87 191.032C261.998 191.032 262.12 190.989 262.238 190.904L262.546 191.888C262.407 191.963 262.251 192.021 262.078 192.064C261.907 192.107 261.739 192.128 261.574 192.128ZM265.575 192.128C265.132 192.128 264.735 192.033 264.383 191.844C264.033 191.652 263.756 191.392 263.551 191.064C263.345 190.736 263.243 190.365 263.243 189.952C263.243 189.648 263.3 189.364 263.415 189.1C263.532 188.836 263.695 188.605 263.903 188.408C264.111 188.208 264.352 188.053 264.627 187.944C264.901 187.832 265.199 187.776 265.519 187.776C265.945 187.776 266.319 187.865 266.639 188.044C266.961 188.22 267.212 188.465 267.391 188.78C267.572 189.095 267.663 189.461 267.663 189.88C267.663 189.915 267.661 189.945 267.659 189.972C267.659 189.996 267.655 190.043 267.647 190.112H264.507C264.507 190.32 264.553 190.501 264.647 190.656C264.743 190.811 264.876 190.932 265.047 191.02C265.217 191.105 265.416 191.148 265.643 191.148C265.856 191.148 266.044 191.107 266.207 191.024C266.372 190.941 266.531 190.809 266.683 190.628L267.567 191.072C267.375 191.403 267.103 191.661 266.751 191.848C266.399 192.035 266.007 192.128 265.575 192.128ZM264.551 189.432H266.455C266.428 189.275 266.371 189.139 266.283 189.024C266.197 188.909 266.088 188.821 265.955 188.76C265.821 188.699 265.671 188.668 265.503 188.668C265.324 188.668 265.167 188.699 265.031 188.76C264.895 188.821 264.785 188.909 264.703 189.024C264.62 189.139 264.569 189.275 264.551 189.432ZM268.755 192V187.904H269.983V188.36C270.141 188.184 270.337 188.043 270.571 187.936C270.809 187.829 271.07 187.776 271.355 187.776C271.67 187.776 271.946 187.845 272.183 187.984C272.423 188.12 272.611 188.311 272.747 188.556C272.883 188.799 272.951 189.083 272.951 189.408V192H271.723V189.668C271.723 189.375 271.646 189.147 271.491 188.984C271.339 188.819 271.13 188.736 270.863 188.736C270.682 188.736 270.525 188.773 270.391 188.848C270.261 188.92 270.159 189.02 270.087 189.148C270.018 189.273 269.983 189.416 269.983 189.576V192H268.755Z" fill="black"/>
<path d="M291.9 229V222.4H295.608V223.536H292.884L293.196 223.252V225.484L292.884 225.124H295.428V226.26H292.884L293.196 225.9V229H291.9ZM298.748 229.128C298.001 229.128 297.462 228.98 297.132 228.684C296.801 228.388 296.636 227.904 296.636 227.232V224.904H297.864V226.944C297.864 227.376 297.93 227.681 298.064 227.86C298.2 228.039 298.428 228.128 298.748 228.128C299.073 228.128 299.301 228.039 299.432 227.86C299.565 227.681 299.632 227.376 299.632 226.944V224.904H300.86V227.232C300.86 227.904 300.694 228.388 300.364 228.684C300.036 228.98 299.497 229.128 298.748 229.128ZM299.696 224.056C299.517 224.056 299.364 223.993 299.236 223.868C299.11 223.74 299.048 223.587 299.048 223.408C299.048 223.227 299.11 223.073 299.236 222.948C299.364 222.823 299.517 222.76 299.696 222.76C299.877 222.76 300.03 222.823 300.156 222.948C300.284 223.073 300.348 223.227 300.348 223.408C300.348 223.587 300.284 223.74 300.156 223.868C300.03 223.993 299.877 224.056 299.696 224.056ZM297.808 224.056C297.629 224.056 297.476 223.993 297.348 223.868C297.222 223.74 297.16 223.587 297.16 223.408C297.16 223.227 297.222 223.073 297.348 222.948C297.476 222.823 297.629 222.76 297.808 222.76C297.989 222.76 298.142 222.823 298.268 222.948C298.396 223.073 298.46 223.227 298.46 223.408C298.46 223.587 298.396 223.74 298.268 223.868C298.142 223.993 297.989 224.056 297.808 224.056ZM303.368 229.128C303.022 229.128 302.711 229.073 302.436 228.964C302.164 228.855 301.938 228.695 301.756 228.484L302.272 227.66C302.443 227.841 302.622 227.98 302.808 228.076C302.995 228.172 303.182 228.22 303.368 228.22C303.472 228.22 303.562 228.203 303.636 228.168C303.714 228.133 303.774 228.084 303.816 228.02C303.862 227.953 303.884 227.873 303.884 227.78C303.884 227.673 303.854 227.589 303.792 227.528C303.734 227.467 303.643 227.411 303.52 227.36C303.398 227.307 303.239 227.24 303.044 227.16C302.879 227.091 302.72 227.012 302.568 226.924C302.416 226.836 302.292 226.724 302.196 226.588C302.103 226.452 302.056 226.28 302.056 226.072C302.056 225.819 302.127 225.596 302.268 225.404C302.41 225.209 302.604 225.057 302.852 224.948C303.103 224.839 303.391 224.784 303.716 224.784C303.919 224.784 304.131 224.815 304.352 224.876C304.576 224.937 304.815 225.031 305.068 225.156L304.648 225.944C304.304 225.723 303.996 225.612 303.724 225.612C303.572 225.612 303.451 225.645 303.36 225.712C303.27 225.779 303.224 225.863 303.224 225.964C303.224 226.06 303.271 226.144 303.364 226.216C303.46 226.285 303.576 226.348 303.712 226.404C303.851 226.457 303.983 226.507 304.108 226.552C304.314 226.627 304.495 226.709 304.652 226.8C304.812 226.891 304.938 227.009 305.028 227.156C305.119 227.3 305.164 227.493 305.164 227.736C305.164 228.032 305.092 228.284 304.948 228.492C304.807 228.697 304.602 228.855 304.332 228.964C304.066 229.073 303.744 229.128 303.368 229.128ZM307.462 229.128C307.115 229.128 306.805 229.073 306.53 228.964C306.258 228.855 306.031 228.695 305.85 228.484L306.366 227.66C306.537 227.841 306.715 227.98 306.902 228.076C307.089 228.172 307.275 228.22 307.462 228.22C307.566 228.22 307.655 228.203 307.73 228.168C307.807 228.133 307.867 228.084 307.91 228.02C307.955 227.953 307.978 227.873 307.978 227.78C307.978 227.673 307.947 227.589 307.886 227.528C307.827 227.467 307.737 227.411 307.614 227.36C307.491 227.307 307.333 227.24 307.138 227.16C306.973 227.091 306.814 227.012 306.662 226.924C306.51 226.836 306.386 226.724 306.29 226.588C306.197 226.452 306.15 226.28 306.15 226.072C306.15 225.819 306.221 225.596 306.362 225.404C306.503 225.209 306.698 225.057 306.946 224.948C307.197 224.839 307.485 224.784 307.81 224.784C308.013 224.784 308.225 224.815 308.446 224.876C308.67 224.937 308.909 225.031 309.162 225.156L308.742 225.944C308.398 225.723 308.09 225.612 307.818 225.612C307.666 225.612 307.545 225.645 307.454 225.712C307.363 225.779 307.318 225.863 307.318 225.964C307.318 226.06 307.365 226.144 307.458 226.216C307.554 226.285 307.67 226.348 307.806 226.404C307.945 226.457 308.077 226.507 308.202 226.552C308.407 226.627 308.589 226.709 308.746 226.8C308.906 226.891 309.031 227.009 309.122 227.156C309.213 227.3 309.258 227.493 309.258 227.736C309.258 228.032 309.186 228.284 309.042 228.492C308.901 228.697 308.695 228.855 308.426 228.964C308.159 229.073 307.838 229.128 307.462 229.128ZM312.364 229.128C311.921 229.128 311.524 229.033 311.172 228.844C310.823 228.652 310.545 228.392 310.34 228.064C310.135 227.736 310.032 227.365 310.032 226.952C310.032 226.648 310.089 226.364 310.204 226.1C310.321 225.836 310.484 225.605 310.692 225.408C310.9 225.208 311.141 225.053 311.416 224.944C311.691 224.832 311.988 224.776 312.308 224.776C312.735 224.776 313.108 224.865 313.428 225.044C313.751 225.22 314.001 225.465 314.18 225.78C314.361 226.095 314.452 226.461 314.452 226.88C314.452 226.915 314.451 226.945 314.448 226.972C314.448 226.996 314.444 227.043 314.436 227.112H311.296C311.296 227.32 311.343 227.501 311.436 227.656C311.532 227.811 311.665 227.932 311.836 228.02C312.007 228.105 312.205 228.148 312.432 228.148C312.645 228.148 312.833 228.107 312.996 228.024C313.161 227.941 313.32 227.809 313.472 227.628L314.356 228.072C314.164 228.403 313.892 228.661 313.54 228.848C313.188 229.035 312.796 229.128 312.364 229.128ZM311.34 226.432H313.244C313.217 226.275 313.16 226.139 313.072 226.024C312.987 225.909 312.877 225.821 312.744 225.76C312.611 225.699 312.46 225.668 312.292 225.668C312.113 225.668 311.956 225.699 311.82 225.76C311.684 225.821 311.575 225.909 311.492 226.024C311.409 226.139 311.359 226.275 311.34 226.432ZM315.544 229V224.904H316.772V225.36C316.93 225.184 317.126 225.043 317.36 224.936C317.598 224.829 317.859 224.776 318.144 224.776C318.459 224.776 318.735 224.845 318.972 224.984C319.212 225.12 319.4 225.311 319.536 225.556C319.672 225.799 319.74 226.083 319.74 226.408V229H318.512V226.668C318.512 226.375 318.435 226.147 318.28 225.984C318.128 225.819 317.919 225.736 317.652 225.736C317.471 225.736 317.314 225.773 317.18 225.848C317.05 225.92 316.948 226.02 316.876 226.148C316.807 226.273 316.772 226.416 316.772 226.576V229H315.544Z" fill="black"/>
<path d="M317.781 267.128C317.328 267.128 316.905 267.041 316.513 266.868C316.121 266.695 315.778 266.453 315.485 266.144C315.192 265.832 314.962 265.468 314.797 265.052C314.632 264.636 314.549 264.185 314.549 263.7C314.549 263.236 314.626 262.799 314.781 262.388C314.936 261.975 315.158 261.611 315.449 261.296C315.74 260.979 316.09 260.731 316.501 260.552C316.912 260.371 317.372 260.28 317.881 260.28C318.169 260.28 318.458 260.312 318.749 260.376C319.042 260.44 319.324 260.535 319.593 260.66C319.862 260.783 320.105 260.933 320.321 261.112L319.713 262.116C319.481 261.9 319.2 261.733 318.869 261.616C318.541 261.496 318.217 261.436 317.897 261.436C317.582 261.436 317.304 261.492 317.061 261.604C316.821 261.713 316.618 261.868 316.453 262.068C316.288 262.268 316.162 262.503 316.077 262.772C315.992 263.039 315.949 263.329 315.949 263.644C315.949 263.988 315.997 264.3 316.093 264.58C316.189 264.86 316.322 265.101 316.493 265.304C316.666 265.507 316.868 265.663 317.097 265.772C317.329 265.881 317.578 265.936 317.845 265.936C318.058 265.936 318.264 265.901 318.461 265.832C318.661 265.76 318.838 265.66 318.993 265.532C319.148 265.404 319.27 265.253 319.361 265.08C319.452 264.907 319.497 264.717 319.497 264.512V264.412H317.765V263.408H320.817V264.408C320.817 264.811 320.733 265.179 320.565 265.512C320.4 265.843 320.173 266.129 319.885 266.372C319.597 266.612 319.272 266.799 318.909 266.932C318.546 267.063 318.17 267.128 317.781 267.128ZM323.655 267.128C323.279 267.128 322.936 267.035 322.627 266.848C322.32 266.659 322.076 266.4 321.895 266.072C321.716 265.741 321.627 265.365 321.627 264.944C321.627 264.533 321.713 264.165 321.887 263.84C322.06 263.512 322.299 263.253 322.603 263.064C322.909 262.872 323.26 262.776 323.655 262.776C323.945 262.776 324.216 262.832 324.467 262.944C324.72 263.053 324.927 263.207 325.087 263.404V262.904H326.315V267H325.087V266.46C324.9 266.676 324.685 266.841 324.443 266.956C324.2 267.071 323.937 267.128 323.655 267.128ZM324.019 266.084C324.232 266.084 324.421 266.036 324.587 265.94C324.752 265.841 324.881 265.707 324.975 265.536C325.068 265.365 325.115 265.171 325.115 264.952C325.115 264.731 325.067 264.536 324.971 264.368C324.877 264.197 324.748 264.064 324.583 263.968C324.42 263.869 324.232 263.82 324.019 263.82C323.808 263.82 323.62 263.869 323.455 263.968C323.289 264.064 323.159 264.197 323.063 264.368C322.967 264.539 322.919 264.733 322.919 264.952C322.919 265.171 322.965 265.365 323.059 265.536C323.155 265.707 323.285 265.841 323.451 265.94C323.616 266.036 323.805 266.084 324.019 266.084ZM327.759 267V262.904H328.987V263.492C329.139 263.263 329.324 263.087 329.543 262.964C329.764 262.839 330.002 262.776 330.255 262.776C330.399 262.776 330.548 262.797 330.703 262.84C330.858 262.883 330.987 262.937 331.091 263.004L330.579 264.04C330.488 263.979 330.382 263.931 330.259 263.896C330.139 263.859 330.027 263.84 329.923 263.84C329.763 263.84 329.611 263.881 329.467 263.964C329.323 264.047 329.207 264.155 329.119 264.288C329.031 264.419 328.987 264.56 328.987 264.712V267H327.759ZM331.775 267V262.904H333.003V263.36C333.205 263.157 333.407 263.009 333.607 262.916C333.807 262.823 334.023 262.776 334.255 262.776C334.569 262.776 334.853 262.847 335.107 262.988C335.36 263.129 335.541 263.319 335.651 263.556C335.851 263.297 336.065 263.103 336.295 262.972C336.524 262.841 336.787 262.776 337.083 262.776C337.379 262.776 337.641 262.837 337.871 262.96C338.1 263.083 338.28 263.257 338.411 263.484C338.544 263.708 338.611 263.973 338.611 264.28V267H337.383V264.616C337.383 264.349 337.313 264.14 337.175 263.988C337.036 263.833 336.851 263.756 336.619 263.756C336.459 263.756 336.317 263.789 336.195 263.856C336.075 263.923 335.98 264.012 335.911 264.124C335.841 264.236 335.807 264.36 335.807 264.496V267H334.579V264.592C334.579 264.339 334.511 264.136 334.375 263.984C334.241 263.832 334.056 263.756 333.819 263.756C333.661 263.756 333.52 263.789 333.395 263.856C333.272 263.923 333.176 264.013 333.107 264.128C333.037 264.243 333.003 264.369 333.003 264.508V267H331.775ZM339.99 267V262.904H341.218V267H339.99ZM340.606 262.052C340.472 262.052 340.35 262.02 340.238 261.956C340.128 261.889 340.04 261.8 339.974 261.688C339.907 261.576 339.874 261.453 339.874 261.32C339.874 261.187 339.907 261.065 339.974 260.956C340.04 260.847 340.128 260.76 340.238 260.696C340.35 260.629 340.472 260.596 340.606 260.596C340.739 260.596 340.86 260.629 340.97 260.696C341.079 260.76 341.166 260.847 341.23 260.956C341.296 261.065 341.33 261.187 341.33 261.32C341.33 261.453 341.296 261.576 341.23 261.688C341.166 261.8 341.079 261.889 340.97 261.956C340.86 262.02 340.739 262.052 340.606 262.052ZM343.825 267.128C343.479 267.128 343.168 267.073 342.893 266.964C342.621 266.855 342.395 266.695 342.213 266.484L342.729 265.66C342.9 265.841 343.079 265.98 343.265 266.076C343.452 266.172 343.639 266.22 343.825 266.22C343.929 266.22 344.019 266.203 344.093 266.168C344.171 266.133 344.231 266.084 344.273 266.02C344.319 265.953 344.341 265.873 344.341 265.78C344.341 265.673 344.311 265.589 344.249 265.528C344.191 265.467 344.1 265.411 343.977 265.36C343.855 265.307 343.696 265.24 343.501 265.16C343.336 265.091 343.177 265.012 343.025 264.924C342.873 264.836 342.749 264.724 342.653 264.588C342.56 264.452 342.513 264.28 342.513 264.072C342.513 263.819 342.584 263.596 342.725 263.404C342.867 263.209 343.061 263.057 343.309 262.948C343.56 262.839 343.848 262.784 344.173 262.784C344.376 262.784 344.588 262.815 344.809 262.876C345.033 262.937 345.272 263.031 345.525 263.156L345.105 263.944C344.761 263.723 344.453 263.612 344.181 263.612C344.029 263.612 343.908 263.645 343.817 263.712C343.727 263.779 343.681 263.863 343.681 263.964C343.681 264.06 343.728 264.144 343.821 264.216C343.917 264.285 344.033 264.348 344.169 264.404C344.308 264.457 344.44 264.507 344.565 264.552C344.771 264.627 344.952 264.709 345.109 264.8C345.269 264.891 345.395 265.009 345.485 265.156C345.576 265.3 345.621 265.493 345.621 265.736C345.621 266.032 345.549 266.284 345.405 266.492C345.264 266.697 345.059 266.855 344.789 266.964C344.523 267.073 344.201 267.128 343.825 267.128ZM348.675 267.128C348.363 267.128 348.068 267.072 347.791 266.96C347.516 266.848 347.274 266.693 347.063 266.496C346.852 266.296 346.687 266.065 346.567 265.804C346.447 265.54 346.387 265.257 346.387 264.956C346.387 264.665 346.443 264.389 346.555 264.128C346.67 263.867 346.83 263.635 347.035 263.432C347.243 263.229 347.486 263.069 347.763 262.952C348.043 262.835 348.346 262.776 348.671 262.776C348.935 262.776 349.188 262.813 349.431 262.888C349.676 262.963 349.874 263.059 350.023 263.176L349.603 264.004C349.403 263.857 349.155 263.784 348.859 263.784C348.606 263.784 348.391 263.84 348.215 263.952C348.039 264.064 347.904 264.209 347.811 264.388C347.72 264.567 347.675 264.755 347.675 264.952C347.675 265.168 347.724 265.365 347.823 265.544C347.922 265.72 348.06 265.86 348.239 265.964C348.42 266.068 348.63 266.12 348.867 266.12C349.014 266.12 349.151 266.1 349.279 266.06C349.407 266.02 349.515 265.967 349.603 265.9L350.023 266.728C349.871 266.843 349.675 266.937 349.435 267.012C349.195 267.089 348.942 267.128 348.675 267.128ZM351.017 267V260.12H352.245V263.36C352.402 263.184 352.598 263.043 352.833 262.936C353.07 262.829 353.332 262.776 353.617 262.776C353.932 262.776 354.208 262.845 354.445 262.984C354.685 263.12 354.873 263.311 355.009 263.556C355.145 263.799 355.213 264.083 355.213 264.408V267H353.985V264.668C353.985 264.375 353.908 264.147 353.753 263.984C353.601 263.819 353.392 263.736 353.125 263.736C352.944 263.736 352.786 263.773 352.653 263.848C352.522 263.92 352.421 264.02 352.349 264.148C352.28 264.273 352.245 264.416 352.245 264.576V267H351.017ZM356.579 265.212V264.156H359.155V265.212H356.579ZM307.06 276V269.4H309.308C309.737 269.4 310.119 269.475 310.452 269.624C310.785 269.773 311.048 269.996 311.24 270.292C311.432 270.585 311.528 270.952 311.528 271.392C311.528 271.829 311.432 272.203 311.24 272.512C311.048 272.821 310.785 273.059 310.452 273.224C310.119 273.387 309.737 273.468 309.308 273.468H308.356V276H307.06ZM308.356 272.432H308.908C309.135 272.432 309.343 272.399 309.532 272.332C309.724 272.265 309.879 272.159 309.996 272.012C310.113 271.865 310.172 271.672 310.172 271.432C310.172 271.189 310.113 270.996 309.996 270.852C309.879 270.705 309.724 270.6 309.532 270.536C309.343 270.469 309.135 270.436 308.908 270.436H308.356V272.432ZM313.936 276.128C313.56 276.128 313.217 276.035 312.908 275.848C312.601 275.659 312.357 275.4 312.176 275.072C311.997 274.741 311.908 274.365 311.908 273.944C311.908 273.533 311.995 273.165 312.168 272.84C312.341 272.512 312.58 272.253 312.884 272.064C313.191 271.872 313.541 271.776 313.936 271.776C314.227 271.776 314.497 271.832 314.748 271.944C315.001 272.053 315.208 272.207 315.368 272.404V271.904H316.596V276H315.368V275.46C315.181 275.676 314.967 275.841 314.724 275.956C314.481 276.071 314.219 276.128 313.936 276.128ZM314.3 275.084C314.513 275.084 314.703 275.036 314.868 274.94C315.033 274.841 315.163 274.707 315.256 274.536C315.349 274.365 315.396 274.171 315.396 273.952C315.396 273.731 315.348 273.536 315.252 273.368C315.159 273.197 315.029 273.064 314.864 272.968C314.701 272.869 314.513 272.82 314.3 272.82C314.089 272.82 313.901 272.869 313.736 272.968C313.571 273.064 313.44 273.197 313.344 273.368C313.248 273.539 313.2 273.733 313.2 273.952C313.2 274.171 313.247 274.365 313.34 274.536C313.436 274.707 313.567 274.841 313.732 274.94C313.897 275.036 314.087 275.084 314.3 275.084ZM318.04 276V271.904H319.268V272.492C319.42 272.263 319.606 272.087 319.824 271.964C320.046 271.839 320.283 271.776 320.536 271.776C320.68 271.776 320.83 271.797 320.984 271.84C321.139 271.883 321.268 271.937 321.372 272.004L320.86 273.04C320.77 272.979 320.663 272.931 320.54 272.896C320.42 272.859 320.308 272.84 320.204 272.84C320.044 272.84 319.892 272.881 319.748 272.964C319.604 273.047 319.488 273.155 319.4 273.288C319.312 273.419 319.268 273.56 319.268 273.712V276H318.04ZM323.468 276.128C323.06 276.128 322.743 275.999 322.516 275.74C322.289 275.479 322.176 275.115 322.176 274.648V272.836H321.628V271.904H322.176V270.368H323.404V271.904H324.304V272.836H323.404V274.56C323.404 274.715 323.435 274.832 323.496 274.912C323.56 274.992 323.649 275.032 323.764 275.032C323.892 275.032 324.015 274.989 324.132 274.904L324.44 275.888C324.301 275.963 324.145 276.021 323.972 276.064C323.801 276.107 323.633 276.128 323.468 276.128ZM327.469 276.128C327.027 276.128 326.629 276.033 326.277 275.844C325.928 275.652 325.651 275.392 325.445 275.064C325.24 274.736 325.137 274.365 325.137 273.952C325.137 273.648 325.195 273.364 325.309 273.1C325.427 272.836 325.589 272.605 325.797 272.408C326.005 272.208 326.247 272.053 326.521 271.944C326.796 271.832 327.093 271.776 327.413 271.776C327.84 271.776 328.213 271.865 328.533 272.044C328.856 272.22 329.107 272.465 329.285 272.78C329.467 273.095 329.557 273.461 329.557 273.88C329.557 273.915 329.556 273.945 329.553 273.972C329.553 273.996 329.549 274.043 329.541 274.112H326.401C326.401 274.32 326.448 274.501 326.541 274.656C326.637 274.811 326.771 274.932 326.941 275.02C327.112 275.105 327.311 275.148 327.537 275.148C327.751 275.148 327.939 275.107 328.101 275.024C328.267 274.941 328.425 274.809 328.577 274.628L329.461 275.072C329.269 275.403 328.997 275.661 328.645 275.848C328.293 276.035 327.901 276.128 327.469 276.128ZM326.445 273.432H328.349C328.323 273.275 328.265 273.139 328.177 273.024C328.092 272.909 327.983 272.821 327.849 272.76C327.716 272.699 327.565 272.668 327.397 272.668C327.219 272.668 327.061 272.699 326.925 272.76C326.789 272.821 326.68 272.909 326.597 273.024C326.515 273.139 326.464 273.275 326.445 273.432ZM330.65 276V271.904H331.878V272.36C332.035 272.184 332.231 272.043 332.466 271.936C332.703 271.829 332.964 271.776 333.25 271.776C333.564 271.776 333.84 271.845 334.078 271.984C334.318 272.12 334.506 272.311 334.642 272.556C334.778 272.799 334.846 273.083 334.846 273.408V276H333.618V273.668C333.618 273.375 333.54 273.147 333.386 272.984C333.234 272.819 333.024 272.736 332.758 272.736C332.576 272.736 332.419 272.773 332.286 272.848C332.155 272.92 332.054 273.02 331.982 273.148C331.912 273.273 331.878 273.416 331.878 273.576V276H330.65ZM336.212 276V269.12H337.44V273.4L338.952 271.904H340.544L338.54 273.912L340.636 276H339.06L337.44 274.38V276H336.212ZM341.388 276V271.904H342.616V276H341.388ZM342.004 271.052C341.871 271.052 341.748 271.02 341.636 270.956C341.527 270.889 341.439 270.8 341.372 270.688C341.305 270.576 341.272 270.453 341.272 270.32C341.272 270.187 341.305 270.065 341.372 269.956C341.439 269.847 341.527 269.76 341.636 269.696C341.748 269.629 341.871 269.596 342.004 269.596C342.137 269.596 342.259 269.629 342.368 269.696C342.477 269.76 342.564 269.847 342.628 269.956C342.695 270.065 342.728 270.187 342.728 270.32C342.728 270.453 342.695 270.576 342.628 270.688C342.564 270.8 342.477 270.889 342.368 270.956C342.259 271.02 342.137 271.052 342.004 271.052ZM344.064 276V271.904H345.292V272.492C345.444 272.263 345.629 272.087 345.848 271.964C346.069 271.839 346.307 271.776 346.56 271.776C346.704 271.776 346.853 271.797 347.008 271.84C347.163 271.883 347.292 271.937 347.396 272.004L346.884 273.04C346.793 272.979 346.687 272.931 346.564 272.896C346.444 272.859 346.332 272.84 346.228 272.84C346.068 272.84 345.916 272.881 345.772 272.964C345.628 273.047 345.512 273.155 345.424 273.288C345.336 273.419 345.292 273.56 345.292 273.712V276H344.064ZM349.949 276.128C349.637 276.128 349.342 276.072 349.065 275.96C348.79 275.848 348.547 275.693 348.337 275.496C348.126 275.296 347.961 275.065 347.841 274.804C347.721 274.54 347.661 274.257 347.661 273.956C347.661 273.665 347.717 273.389 347.829 273.128C347.943 272.867 348.103 272.635 348.309 272.432C348.517 272.229 348.759 272.069 349.037 271.952C349.317 271.835 349.619 271.776 349.945 271.776C350.209 271.776 350.462 271.813 350.705 271.888C350.95 271.963 351.147 272.059 351.297 272.176L350.877 273.004C350.677 272.857 350.429 272.784 350.133 272.784C349.879 272.784 349.665 272.84 349.489 272.952C349.313 273.064 349.178 273.209 349.085 273.388C348.994 273.567 348.949 273.755 348.949 273.952C348.949 274.168 348.998 274.365 349.097 274.544C349.195 274.72 349.334 274.86 349.513 274.964C349.694 275.068 349.903 275.12 350.141 275.12C350.287 275.12 350.425 275.1 350.553 275.06C350.681 275.02 350.789 274.967 350.877 274.9L351.297 275.728C351.145 275.843 350.949 275.937 350.709 276.012C350.469 276.089 350.215 276.128 349.949 276.128ZM352.29 276V269.12H353.518V272.36C353.676 272.184 353.872 272.043 354.106 271.936C354.344 271.829 354.605 271.776 354.89 271.776C355.205 271.776 355.481 271.845 355.718 271.984C355.958 272.12 356.146 272.311 356.282 272.556C356.418 272.799 356.486 273.083 356.486 273.408V276H355.258V273.668C355.258 273.375 355.181 273.147 355.026 272.984C354.874 272.819 354.665 272.736 354.398 272.736C354.217 272.736 354.06 272.773 353.926 272.848C353.796 272.92 353.694 273.02 353.622 273.148C353.553 273.273 353.518 273.416 353.518 273.576V276H352.29ZM359.821 276.128C359.378 276.128 358.981 276.033 358.629 275.844C358.28 275.652 358.002 275.392 357.797 275.064C357.592 274.736 357.489 274.365 357.489 273.952C357.489 273.648 357.546 273.364 357.661 273.1C357.778 272.836 357.941 272.605 358.149 272.408C358.357 272.208 358.598 272.053 358.873 271.944C359.148 271.832 359.445 271.776 359.765 271.776C360.192 271.776 360.565 271.865 360.885 272.044C361.208 272.22 361.458 272.465 361.637 272.78C361.818 273.095 361.909 273.461 361.909 273.88C361.909 273.915 361.908 273.945 361.905 273.972C361.905 273.996 361.901 274.043 361.893 274.112H358.753C358.753 274.32 358.8 274.501 358.893 274.656C358.989 274.811 359.122 274.932 359.293 275.02C359.464 275.105 359.662 275.148 359.889 275.148C360.102 275.148 360.29 275.107 360.453 275.024C360.618 274.941 360.777 274.809 360.929 274.628L361.813 275.072C361.621 275.403 361.349 275.661 360.997 275.848C360.645 276.035 360.253 276.128 359.821 276.128ZM358.797 273.432H360.701C360.674 273.275 360.617 273.139 360.529 273.024C360.444 272.909 360.334 272.821 360.201 272.76C360.068 272.699 359.917 272.668 359.749 272.668C359.57 272.668 359.413 272.699 359.277 272.76C359.141 272.821 359.032 272.909 358.949 273.024C358.866 273.139 358.816 273.275 358.797 273.432ZM363.001 276V271.904H364.229V272.36C364.387 272.184 364.583 272.043 364.817 271.936C365.055 271.829 365.316 271.776 365.601 271.776C365.916 271.776 366.192 271.845 366.429 271.984C366.669 272.12 366.857 272.311 366.993 272.556C367.129 272.799 367.197 273.083 367.197 273.408V276H365.969V273.668C365.969 273.375 365.892 273.147 365.737 272.984C365.585 272.819 365.376 272.736 365.109 272.736C364.928 272.736 364.771 272.773 364.637 272.848C364.507 272.92 364.405 273.02 364.333 273.148C364.264 273.273 364.229 273.416 364.229 273.576V276H363.001Z" fill="black"/>
<path d="M209.596 139L210.252 132.4H211.628L213.204 136.528L214.78 132.4H216.156L216.812 139H215.516L215.108 134.728L213.6 138.836H212.804L211.3 134.728L210.888 139H209.596ZM220.098 139.128C219.656 139.128 219.258 139.033 218.906 138.844C218.557 138.652 218.28 138.392 218.074 138.064C217.869 137.736 217.766 137.365 217.766 136.952C217.766 136.648 217.824 136.364 217.938 136.1C218.056 135.836 218.218 135.605 218.426 135.408C218.634 135.208 218.876 135.053 219.15 134.944C219.425 134.832 219.722 134.776 220.042 134.776C220.469 134.776 220.842 134.865 221.162 135.044C221.485 135.22 221.736 135.465 221.914 135.78C222.096 136.095 222.186 136.461 222.186 136.88C222.186 136.915 222.185 136.945 222.182 136.972C222.182 136.996 222.178 137.043 222.17 137.112H219.03C219.03 137.32 219.077 137.501 219.17 137.656C219.266 137.811 219.4 137.932 219.57 138.02C219.741 138.105 219.94 138.148 220.166 138.148C220.38 138.148 220.568 138.107 220.73 138.024C220.896 137.941 221.054 137.809 221.206 137.628L222.09 138.072C221.898 138.403 221.626 138.661 221.274 138.848C220.922 139.035 220.53 139.128 220.098 139.128ZM219.074 136.432H220.978C220.952 136.275 220.894 136.139 220.806 136.024C220.721 135.909 220.612 135.821 220.478 135.76C220.345 135.699 220.194 135.668 220.026 135.668C219.848 135.668 219.69 135.699 219.554 135.76C219.418 135.821 219.309 135.909 219.226 136.024C219.144 136.139 219.093 136.275 219.074 136.432ZM223.279 139V134.904H224.507V135.36C224.709 135.157 224.911 135.009 225.111 134.916C225.311 134.823 225.527 134.776 225.759 134.776C226.073 134.776 226.357 134.847 226.611 134.988C226.864 135.129 227.045 135.319 227.155 135.556C227.355 135.297 227.569 135.103 227.799 134.972C228.028 134.841 228.291 134.776 228.587 134.776C228.883 134.776 229.145 134.837 229.375 134.96C229.604 135.083 229.784 135.257 229.915 135.484C230.048 135.708 230.115 135.973 230.115 136.28V139H228.887V136.616C228.887 136.349 228.817 136.14 228.679 135.988C228.54 135.833 228.355 135.756 228.123 135.756C227.963 135.756 227.821 135.789 227.699 135.856C227.579 135.923 227.484 136.012 227.415 136.124C227.345 136.236 227.311 136.36 227.311 136.496V139H226.083V136.592C226.083 136.339 226.015 136.136 225.879 135.984C225.745 135.832 225.56 135.756 225.323 135.756C225.165 135.756 225.024 135.789 224.899 135.856C224.776 135.923 224.68 136.013 224.611 136.128C224.541 136.243 224.507 136.369 224.507 136.508V139H223.279ZM231.497 139V134.904H232.725V135.36C232.928 135.157 233.129 135.009 233.329 134.916C233.529 134.823 233.745 134.776 233.977 134.776C234.292 134.776 234.576 134.847 234.829 134.988C235.083 135.129 235.264 135.319 235.373 135.556C235.573 135.297 235.788 135.103 236.017 134.972C236.247 134.841 236.509 134.776 236.805 134.776C237.101 134.776 237.364 134.837 237.593 134.96C237.823 135.083 238.003 135.257 238.133 135.484C238.267 135.708 238.333 135.973 238.333 136.28V139H237.105V136.616C237.105 136.349 237.036 136.14 236.897 135.988C236.759 135.833 236.573 135.756 236.341 135.756C236.181 135.756 236.04 135.789 235.917 135.856C235.797 135.923 235.703 136.012 235.633 136.124C235.564 136.236 235.529 136.36 235.529 136.496V139H234.301V136.592C234.301 136.339 234.233 136.136 234.097 135.984C233.964 135.832 233.779 135.756 233.541 135.756C233.384 135.756 233.243 135.789 233.117 135.856C232.995 135.923 232.899 136.013 232.829 136.128C232.76 136.243 232.725 136.369 232.725 136.508V139H231.497ZM239.712 139V134.904H240.94V139H239.712ZM240.328 134.052C240.195 134.052 240.072 134.02 239.96 133.956C239.851 133.889 239.763 133.8 239.696 133.688C239.63 133.576 239.596 133.453 239.596 133.32C239.596 133.187 239.63 133.065 239.696 132.956C239.763 132.847 239.851 132.76 239.96 132.696C240.072 132.629 240.195 132.596 240.328 132.596C240.462 132.596 240.583 132.629 240.692 132.696C240.802 132.76 240.888 132.847 240.952 132.956C241.019 133.065 241.052 133.187 241.052 133.32C241.052 133.453 241.019 133.576 240.952 133.688C240.888 133.8 240.802 133.889 240.692 133.956C240.583 134.02 240.462 134.052 240.328 134.052ZM242.388 139V134.904H243.616V135.36C243.773 135.184 243.969 135.043 244.204 134.936C244.441 134.829 244.703 134.776 244.988 134.776C245.303 134.776 245.579 134.845 245.816 134.984C246.056 135.12 246.244 135.311 246.38 135.556C246.516 135.799 246.584 136.083 246.584 136.408V139H245.356V136.668C245.356 136.375 245.279 136.147 245.124 135.984C244.972 135.819 244.763 135.736 244.496 135.736C244.315 135.736 244.157 135.773 244.024 135.848C243.893 135.92 243.792 136.02 243.72 136.148C243.651 136.273 243.616 136.416 243.616 136.576V139H242.388ZM249.923 141.2C249.371 141.2 248.907 141.099 248.531 140.896C248.155 140.696 247.881 140.4 247.711 140.008L248.711 139.52C248.823 139.709 248.988 139.86 249.207 139.972C249.425 140.084 249.663 140.14 249.919 140.14C250.151 140.14 250.355 140.093 250.531 140C250.707 139.909 250.844 139.78 250.943 139.612C251.041 139.447 251.091 139.255 251.091 139.036V138.46C250.909 138.671 250.695 138.835 250.447 138.952C250.199 139.069 249.932 139.128 249.647 139.128C249.276 139.128 248.937 139.036 248.631 138.852C248.327 138.665 248.084 138.408 247.903 138.08C247.721 137.752 247.631 137.376 247.631 136.952C247.631 136.536 247.719 136.165 247.895 135.84C248.073 135.512 248.316 135.253 248.623 135.064C248.932 134.872 249.284 134.776 249.679 134.776C249.967 134.776 250.233 134.832 250.479 134.944C250.724 135.053 250.928 135.207 251.091 135.404V134.904H252.319V139.112C252.319 139.515 252.231 139.873 252.055 140.188C251.881 140.503 251.617 140.749 251.263 140.928C250.908 141.109 250.461 141.2 249.923 141.2ZM250.015 138.084C250.231 138.084 250.421 138.036 250.587 137.94C250.755 137.841 250.885 137.708 250.979 137.54C251.072 137.369 251.119 137.176 251.119 136.96C251.119 136.739 251.071 136.543 250.975 136.372C250.881 136.201 250.752 136.067 250.587 135.968C250.421 135.869 250.233 135.82 250.023 135.82C249.812 135.82 249.624 135.869 249.459 135.968C249.293 136.067 249.163 136.203 249.067 136.376C248.971 136.547 248.923 136.741 248.923 136.96C248.923 137.176 248.969 137.369 249.063 137.54C249.156 137.708 249.285 137.841 249.451 137.94C249.616 138.036 249.804 138.084 250.015 138.084ZM255.692 139.128C255.249 139.128 254.852 139.033 254.5 138.844C254.151 138.652 253.873 138.392 253.668 138.064C253.463 137.736 253.36 137.365 253.36 136.952C253.36 136.648 253.417 136.364 253.532 136.1C253.649 135.836 253.812 135.605 254.02 135.408C254.228 135.208 254.469 135.053 254.744 134.944C255.019 134.832 255.316 134.776 255.636 134.776C256.063 134.776 256.436 134.865 256.756 135.044C257.079 135.22 257.329 135.465 257.508 135.78C257.689 136.095 257.78 136.461 257.78 136.88C257.78 136.915 257.779 136.945 257.776 136.972C257.776 136.996 257.772 137.043 257.764 137.112H254.624C254.624 137.32 254.671 137.501 254.764 137.656C254.86 137.811 254.993 137.932 255.164 138.02C255.335 138.105 255.533 138.148 255.76 138.148C255.973 138.148 256.161 138.107 256.324 138.024C256.489 137.941 256.648 137.809 256.8 137.628L257.684 138.072C257.492 138.403 257.22 138.661 256.868 138.848C256.516 139.035 256.124 139.128 255.692 139.128ZM254.668 136.432H256.572C256.545 136.275 256.488 136.139 256.4 136.024C256.315 135.909 256.205 135.821 256.072 135.76C255.939 135.699 255.788 135.668 255.62 135.668C255.441 135.668 255.284 135.699 255.148 135.76C255.012 135.821 254.903 135.909 254.82 136.024C254.737 136.139 254.687 136.275 254.668 136.432ZM258.872 139V134.904H260.1V135.36C260.258 135.184 260.454 135.043 260.688 134.936C260.926 134.829 261.187 134.776 261.472 134.776C261.787 134.776 262.063 134.845 262.3 134.984C262.54 135.12 262.728 135.311 262.864 135.556C263 135.799 263.068 136.083 263.068 136.408V139H261.84V136.668C261.84 136.375 261.763 136.147 261.608 135.984C261.456 135.819 261.247 135.736 260.98 135.736C260.799 135.736 260.642 135.773 260.508 135.848C260.378 135.92 260.276 136.02 260.204 136.148C260.135 136.273 260.1 136.416 260.1 136.576V139H258.872Z" fill="black"/>
<path d="M325.076 46L327.728 39.4H328.932L331.58 46H330.184L329.624 44.496H327.032L326.472 46H325.076ZM327.476 43.36H329.184L328.328 41.148L327.476 43.36ZM334.388 46.128C333.642 46.128 333.103 45.98 332.772 45.684C332.442 45.388 332.276 44.904 332.276 44.232V41.904H333.504V43.944C333.504 44.376 333.571 44.6813 333.704 44.86C333.84 45.0387 334.068 45.128 334.388 45.128C334.714 45.128 334.942 45.0387 335.072 44.86C335.206 44.6813 335.272 44.376 335.272 43.944V41.904H336.5V44.232C336.5 44.904 336.335 45.388 336.004 45.684C335.676 45.98 335.138 46.128 334.388 46.128ZM339.821 48.2C339.269 48.2 338.805 48.0987 338.429 47.896C338.053 47.696 337.78 47.4 337.609 47.008L338.609 46.52C338.721 46.7093 338.886 46.86 339.105 46.972C339.324 47.084 339.561 47.14 339.817 47.14C340.049 47.14 340.253 47.0933 340.429 47C340.605 46.9093 340.742 46.78 340.841 46.612C340.94 46.4467 340.989 46.2547 340.989 46.036V45.46C340.808 45.6707 340.593 45.8347 340.345 45.952C340.097 46.0693 339.83 46.128 339.545 46.128C339.174 46.128 338.836 46.036 338.529 45.852C338.225 45.6653 337.982 45.408 337.801 45.08C337.62 44.752 337.529 44.376 337.529 43.952C337.529 43.536 337.617 43.1653 337.793 42.84C337.972 42.512 338.214 42.2533 338.521 42.064C338.83 41.872 339.182 41.776 339.577 41.776C339.865 41.776 340.132 41.832 340.377 41.944C340.622 42.0533 340.826 42.2067 340.989 42.404V41.904H342.217V46.112C342.217 46.5147 342.129 46.8733 341.953 47.188C341.78 47.5027 341.516 47.7493 341.161 47.928C340.806 48.1093 340.36 48.2 339.821 48.2ZM339.913 45.084C340.129 45.084 340.32 45.036 340.485 44.94C340.653 44.8413 340.784 44.708 340.877 44.54C340.97 44.3693 341.017 44.176 341.017 43.96C341.017 43.7387 340.969 43.5427 340.873 43.372C340.78 43.2013 340.65 43.0667 340.485 42.968C340.32 42.8693 340.132 42.82 339.921 42.82C339.71 42.82 339.522 42.8693 339.357 42.968C339.192 43.0667 339.061 43.2027 338.965 43.376C338.869 43.5467 338.821 43.7413 338.821 43.96C338.821 44.176 338.868 44.3693 338.961 44.54C339.054 44.708 339.184 44.8413 339.349 44.94C339.514 45.036 339.702 45.084 339.913 45.084ZM344.79 46.128C344.444 46.128 344.133 46.0733 343.858 45.964C343.586 45.8547 343.36 45.6947 343.178 45.484L343.694 44.66C343.865 44.8413 344.044 44.98 344.23 45.076C344.417 45.172 344.604 45.22 344.79 45.22C344.894 45.22 344.984 45.2027 345.058 45.168C345.136 45.1333 345.196 45.084 345.238 45.02C345.284 44.9533 345.306 44.8733 345.306 44.78C345.306 44.6733 345.276 44.5893 345.214 44.528C345.156 44.4667 345.065 44.4107 344.942 44.36C344.82 44.3067 344.661 44.24 344.466 44.16C344.301 44.0907 344.142 44.012 343.99 43.924C343.838 43.836 343.714 43.724 343.618 43.588C343.525 43.452 343.478 43.28 343.478 43.072C343.478 42.8187 343.549 42.596 343.69 42.404C343.832 42.2093 344.026 42.0573 344.274 41.948C344.525 41.8387 344.813 41.784 345.138 41.784C345.341 41.784 345.553 41.8147 345.774 41.876C345.998 41.9373 346.237 42.0307 346.49 42.156L346.07 42.944C345.726 42.7227 345.418 42.612 345.146 42.612C344.994 42.612 344.873 42.6453 344.782 42.712C344.692 42.7787 344.646 42.8627 344.646 42.964C344.646 43.06 344.693 43.144 344.786 43.216C344.882 43.2853 344.998 43.348 345.134 43.404C345.273 43.4573 345.405 43.5067 345.53 43.552C345.736 43.6267 345.917 43.7093 346.074 43.8C346.234 43.8907 346.36 44.0093 346.45 44.156C346.541 44.3 346.586 44.4933 346.586 44.736C346.586 45.032 346.514 45.284 346.37 45.492C346.229 45.6973 346.024 45.8547 345.754 45.964C345.488 46.0733 345.166 46.128 344.79 46.128ZM350.392 46.128C350.109 46.128 349.844 46.0693 349.596 45.952C349.348 45.8347 349.133 45.6707 348.952 45.46V46H347.724V39.12H348.952V42.404C349.115 42.2067 349.319 42.0533 349.564 41.944C349.809 41.832 350.075 41.776 350.36 41.776C350.755 41.776 351.107 41.872 351.416 42.064C351.725 42.2533 351.968 42.512 352.144 42.84C352.32 43.1653 352.408 43.536 352.408 43.952C352.408 44.376 352.317 44.752 352.136 45.08C351.955 45.408 351.711 45.6653 351.404 45.852C351.1 46.036 350.763 46.128 350.392 46.128ZM350.024 45.084C350.24 45.084 350.429 45.036 350.592 44.94C350.755 44.8413 350.883 44.708 350.976 44.54C351.069 44.3693 351.116 44.176 351.116 43.96C351.116 43.7413 351.068 43.5467 350.972 43.376C350.876 43.2027 350.747 43.0667 350.584 42.968C350.421 42.8693 350.235 42.82 350.024 42.82C349.813 42.82 349.624 42.8693 349.456 42.968C349.291 43.0667 349.16 43.2013 349.064 43.372C348.968 43.5427 348.92 43.7387 348.92 43.96C348.92 44.176 348.967 44.3693 349.06 44.54C349.156 44.708 349.287 44.8413 349.452 44.94C349.62 45.036 349.811 45.084 350.024 45.084ZM355.545 46.128C354.798 46.128 354.259 45.98 353.929 45.684C353.598 45.388 353.433 44.904 353.433 44.232V41.904H354.661V43.944C354.661 44.376 354.727 44.6813 354.861 44.86C354.997 45.0387 355.225 45.128 355.545 45.128C355.87 45.128 356.098 45.0387 356.229 44.86C356.362 44.6813 356.429 44.376 356.429 43.944V41.904H357.657V44.232C357.657 44.904 357.491 45.388 357.161 45.684C356.833 45.98 356.294 46.128 355.545 46.128ZM359.005 46V41.904H360.233V42.492C360.385 42.2627 360.571 42.0867 360.789 41.964C361.011 41.8387 361.248 41.776 361.501 41.776C361.645 41.776 361.795 41.7973 361.949 41.84C362.104 41.8827 362.233 41.9373 362.337 42.004L361.825 43.04C361.735 42.9787 361.628 42.9307 361.505 42.896C361.385 42.8587 361.273 42.84 361.169 42.84C361.009 42.84 360.857 42.8813 360.713 42.964C360.569 43.0467 360.453 43.1547 360.365 43.288C360.277 43.4187 360.233 43.56 360.233 43.712V46H359.005ZM364.93 48.2C364.378 48.2 363.914 48.0987 363.538 47.896C363.162 47.696 362.889 47.4 362.718 47.008L363.718 46.52C363.83 46.7093 363.996 46.86 364.214 46.972C364.433 47.084 364.67 47.14 364.926 47.14C365.158 47.14 365.362 47.0933 365.538 47C365.714 46.9093 365.852 46.78 365.95 46.612C366.049 46.4467 366.098 46.2547 366.098 46.036V45.46C365.917 45.6707 365.702 45.8347 365.454 45.952C365.206 46.0693 364.94 46.128 364.654 46.128C364.284 46.128 363.945 46.036 363.638 45.852C363.334 45.6653 363.092 45.408 362.91 45.08C362.729 44.752 362.638 44.376 362.638 43.952C362.638 43.536 362.726 43.1653 362.902 42.84C363.081 42.512 363.324 42.2533 363.63 42.064C363.94 41.872 364.292 41.776 364.686 41.776C364.974 41.776 365.241 41.832 365.486 41.944C365.732 42.0533 365.936 42.2067 366.098 42.404V41.904H367.326V46.112C367.326 46.5147 367.238 46.8733 367.062 47.188C366.889 47.5027 366.625 47.7493 366.27 47.928C365.916 48.1093 365.469 48.2 364.93 48.2ZM365.022 45.084C365.238 45.084 365.429 45.036 365.594 44.94C365.762 44.8413 365.893 44.708 365.986 44.54C366.08 44.3693 366.126 44.176 366.126 43.96C366.126 43.7387 366.078 43.5427 365.982 43.372C365.889 43.2013 365.76 43.0667 365.594 42.968C365.429 42.8693 365.241 42.82 365.03 42.82C364.82 42.82 364.632 42.8693 364.466 42.968C364.301 43.0667 364.17 43.2027 364.074 43.376C363.978 43.5467 363.93 43.7413 363.93 43.96C363.93 44.176 363.977 44.3693 364.07 44.54C364.164 44.708 364.293 44.8413 364.458 44.94C364.624 45.036 364.812 45.084 365.022 45.084Z" fill="black"/>
<path d="M185.3 43.128C184.473 43.128 183.848 42.9213 183.424 42.508C183 42.092 182.788 41.476 182.788 40.66V36.4H184.084V40.288C184.084 40.8453 184.179 41.2467 184.368 41.492C184.56 41.7347 184.871 41.856 185.3 41.856C185.729 41.856 186.039 41.7347 186.228 41.492C186.42 41.2467 186.516 40.8453 186.516 40.288V36.4H187.812V40.66C187.812 41.476 187.6 42.092 187.176 42.508C186.755 42.9213 186.129 43.128 185.3 43.128ZM189.326 43V36.12H190.554V43H189.326ZM191.997 43V38.904H193.225V39.36C193.428 39.1573 193.629 39.0093 193.829 38.916C194.029 38.8227 194.245 38.776 194.477 38.776C194.792 38.776 195.076 38.8467 195.329 38.988C195.583 39.1293 195.764 39.3187 195.873 39.556C196.073 39.2973 196.288 39.1027 196.517 38.972C196.747 38.8413 197.009 38.776 197.305 38.776C197.601 38.776 197.864 38.8373 198.093 38.96C198.323 39.0827 198.503 39.2573 198.633 39.484C198.767 39.708 198.833 39.9733 198.833 40.28V43H197.605V40.616C197.605 40.3493 197.536 40.14 197.397 39.988C197.259 39.8333 197.073 39.756 196.841 39.756C196.681 39.756 196.54 39.7893 196.417 39.856C196.297 39.9227 196.203 40.012 196.133 40.124C196.064 40.236 196.029 40.36 196.029 40.496V43H194.801V40.592C194.801 40.3387 194.733 40.136 194.597 39.984C194.464 39.832 194.279 39.756 194.041 39.756C193.884 39.756 193.743 39.7893 193.617 39.856C193.495 39.9227 193.399 40.0133 193.329 40.128C193.26 40.2427 193.225 40.3693 193.225 40.508V43H191.997Z" fill="black"/>
<path d="M64.9 194V187.4H68.608V188.536H65.884L66.196 188.252V190.484L65.884 190.124H68.428V191.26H65.884L66.196 190.9V194H64.9ZM69.7396 194V189.904H70.9676V190.492C71.1196 190.263 71.305 190.087 71.5236 189.964C71.745 189.839 71.9823 189.776 72.2356 189.776C72.3796 189.776 72.529 189.797 72.6836 189.84C72.8383 189.883 72.9676 189.937 73.0716 190.004L72.5596 191.04C72.469 190.979 72.3623 190.931 72.2396 190.896C72.1196 190.859 72.0076 190.84 71.9036 190.84C71.7436 190.84 71.5916 190.881 71.4476 190.964C71.3036 191.047 71.1876 191.155 71.0996 191.288C71.0116 191.419 70.9676 191.56 70.9676 191.712V194H69.7396ZM73.7513 194V189.904H74.9793V194H73.7513ZM74.3673 189.052C74.2339 189.052 74.1113 189.02 73.9993 188.956C73.8899 188.889 73.8019 188.8 73.7353 188.688C73.6686 188.576 73.6353 188.453 73.6353 188.32C73.6353 188.187 73.6686 188.065 73.7353 187.956C73.8019 187.847 73.8899 187.76 73.9993 187.696C74.1113 187.629 74.2339 187.596 74.3673 187.596C74.5006 187.596 74.6219 187.629 74.7313 187.696C74.8406 187.76 74.9273 187.847 74.9913 187.956C75.0579 188.065 75.0913 188.187 75.0913 188.32C75.0913 188.453 75.0579 188.576 74.9913 188.688C74.9273 188.8 74.8406 188.889 74.7313 188.956C74.6219 189.02 74.5006 189.052 74.3673 189.052ZM78.3951 194.128C77.9525 194.128 77.5551 194.033 77.2031 193.844C76.8538 193.652 76.5765 193.392 76.3711 193.064C76.1658 192.736 76.0631 192.365 76.0631 191.952C76.0631 191.648 76.1205 191.364 76.2351 191.1C76.3525 190.836 76.5151 190.605 76.7231 190.408C76.9311 190.208 77.1725 190.053 77.4471 189.944C77.7218 189.832 78.0191 189.776 78.3391 189.776C78.7658 189.776 79.1391 189.865 79.4591 190.044C79.7818 190.22 80.0325 190.465 80.2111 190.78C80.3925 191.095 80.4831 191.461 80.4831 191.88C80.4831 191.915 80.4818 191.945 80.4791 191.972C80.4791 191.996 80.4751 192.043 80.4671 192.112H77.3271C77.3271 192.32 77.3738 192.501 77.4671 192.656C77.5631 192.811 77.6965 192.932 77.8671 193.02C78.0378 193.105 78.2365 193.148 78.4631 193.148C78.6765 193.148 78.8645 193.107 79.0271 193.024C79.1925 192.941 79.3511 192.809 79.5031 192.628L80.3871 193.072C80.1951 193.403 79.9231 193.661 79.5711 193.848C79.2191 194.035 78.8271 194.128 78.3951 194.128ZM77.3711 191.432H79.2751C79.2485 191.275 79.1911 191.139 79.1031 191.024C79.0178 190.909 78.9085 190.821 78.7751 190.76C78.6418 190.699 78.4911 190.668 78.3231 190.668C78.1445 190.668 77.9871 190.699 77.8511 190.76C77.7151 190.821 77.6058 190.909 77.5231 191.024C77.4405 191.139 77.3898 191.275 77.3711 191.432ZM83.2872 194.128C82.9165 194.128 82.5779 194.036 82.2712 193.852C81.9672 193.665 81.7245 193.408 81.5432 193.08C81.3619 192.752 81.2712 192.376 81.2712 191.952C81.2712 191.536 81.3592 191.165 81.5352 190.84C81.7112 190.512 81.9525 190.253 82.2592 190.064C82.5685 189.872 82.9219 189.776 83.3192 189.776C83.6072 189.776 83.8739 189.832 84.1192 189.944C84.3645 190.053 84.5685 190.207 84.7312 190.404V187.12H85.9592V194H84.7312V193.46C84.5499 193.671 84.3352 193.835 84.0872 193.952C83.8392 194.069 83.5725 194.128 83.2872 194.128ZM83.6552 193.084C83.8712 193.084 84.0619 193.036 84.2272 192.94C84.3925 192.841 84.5219 192.707 84.6152 192.536C84.7112 192.365 84.7592 192.172 84.7592 191.956C84.7592 191.737 84.7112 191.543 84.6152 191.372C84.5219 191.201 84.3925 191.067 84.2272 190.968C84.0619 190.869 83.8725 190.82 83.6592 190.82C83.4485 190.82 83.2605 190.869 83.0952 190.968C82.9325 191.067 82.8032 191.203 82.7072 191.376C82.6112 191.547 82.5632 191.741 82.5632 191.96C82.5632 192.176 82.6099 192.369 82.7032 192.54C82.7965 192.708 82.9259 192.841 83.0912 192.94C83.2565 193.036 83.4445 193.084 83.6552 193.084ZM87.4037 194V189.904H88.6317V190.492C88.7837 190.263 88.969 190.087 89.1877 189.964C89.409 189.839 89.6464 189.776 89.8997 189.776C90.0437 189.776 90.193 189.797 90.3477 189.84C90.5024 189.883 90.6317 189.937 90.7357 190.004L90.2237 191.04C90.133 190.979 90.0264 190.931 89.9037 190.896C89.7837 190.859 89.6717 190.84 89.5677 190.84C89.4077 190.84 89.2557 190.881 89.1117 190.964C88.9677 191.047 88.8517 191.155 88.7637 191.288C88.6757 191.419 88.6317 191.56 88.6317 191.712V194H87.4037ZM91.4153 194V189.904H92.6433V194H91.4153ZM92.0313 189.052C91.898 189.052 91.7753 189.02 91.6633 188.956C91.554 188.889 91.466 188.8 91.3993 188.688C91.3326 188.576 91.2993 188.453 91.2993 188.32C91.2993 188.187 91.3326 188.065 91.3993 187.956C91.466 187.847 91.554 187.76 91.6633 187.696C91.7753 187.629 91.898 187.596 92.0313 187.596C92.1646 187.596 92.286 187.629 92.3953 187.696C92.5046 187.76 92.5913 187.847 92.6553 187.956C92.722 188.065 92.7553 188.187 92.7553 188.32C92.7553 188.453 92.722 188.576 92.6553 188.688C92.5913 188.8 92.5046 188.889 92.3953 188.956C92.286 189.02 92.1646 189.052 92.0313 189.052ZM96.0072 194.128C95.6952 194.128 95.4005 194.072 95.1232 193.96C94.8485 193.848 94.6059 193.693 94.3952 193.496C94.1845 193.296 94.0192 193.065 93.8992 192.804C93.7792 192.54 93.7192 192.257 93.7192 191.956C93.7192 191.665 93.7752 191.389 93.8872 191.128C94.0019 190.867 94.1619 190.635 94.3672 190.432C94.5752 190.229 94.8179 190.069 95.0952 189.952C95.3752 189.835 95.6779 189.776 96.0032 189.776C96.2672 189.776 96.5205 189.813 96.7632 189.888C97.0085 189.963 97.2059 190.059 97.3552 190.176L96.9352 191.004C96.7352 190.857 96.4872 190.784 96.1912 190.784C95.9379 190.784 95.7232 190.84 95.5472 190.952C95.3712 191.064 95.2365 191.209 95.1432 191.388C95.0525 191.567 95.0072 191.755 95.0072 191.952C95.0072 192.168 95.0565 192.365 95.1552 192.544C95.2539 192.72 95.3925 192.86 95.5712 192.964C95.7525 193.068 95.9619 193.12 96.1992 193.12C96.3459 193.12 96.4832 193.1 96.6112 193.06C96.7392 193.02 96.8472 192.967 96.9352 192.9L97.3552 193.728C97.2032 193.843 97.0072 193.937 96.7672 194.012C96.5272 194.089 96.2739 194.128 96.0072 194.128ZM98.349 194V187.12H99.577V190.36C99.7343 190.184 99.9303 190.043 100.165 189.936C100.402 189.829 100.664 189.776 100.949 189.776C101.264 189.776 101.54 189.845 101.777 189.984C102.017 190.12 102.205 190.311 102.341 190.556C102.477 190.799 102.545 191.083 102.545 191.408V194H101.317V191.668C101.317 191.375 101.24 191.147 101.085 190.984C100.933 190.819 100.724 190.736 100.457 190.736C100.276 190.736 100.118 190.773 99.985 190.848C99.8543 190.92 99.753 191.02 99.681 191.148C99.6117 191.273 99.577 191.416 99.577 191.576V194H98.349ZM105.032 194.128C104.686 194.128 104.375 194.073 104.1 193.964C103.828 193.855 103.602 193.695 103.42 193.484L103.936 192.66C104.107 192.841 104.286 192.98 104.472 193.076C104.659 193.172 104.846 193.22 105.032 193.22C105.136 193.22 105.226 193.203 105.3 193.168C105.378 193.133 105.438 193.084 105.48 193.02C105.526 192.953 105.548 192.873 105.548 192.78C105.548 192.673 105.518 192.589 105.456 192.528C105.398 192.467 105.307 192.411 105.184 192.36C105.062 192.307 104.903 192.24 104.708 192.16C104.543 192.091 104.384 192.012 104.232 191.924C104.08 191.836 103.956 191.724 103.86 191.588C103.767 191.452 103.72 191.28 103.72 191.072C103.72 190.819 103.791 190.596 103.932 190.404C104.074 190.209 104.268 190.057 104.516 189.948C104.767 189.839 105.055 189.784 105.38 189.784C105.583 189.784 105.795 189.815 106.016 189.876C106.24 189.937 106.479 190.031 106.732 190.156L106.312 190.944C105.968 190.723 105.66 190.612 105.388 190.612C105.236 190.612 105.115 190.645 105.024 190.712C104.934 190.779 104.888 190.863 104.888 190.964C104.888 191.06 104.935 191.144 105.028 191.216C105.124 191.285 105.24 191.348 105.376 191.404C105.515 191.457 105.647 191.507 105.772 191.552C105.978 191.627 106.159 191.709 106.316 191.8C106.476 191.891 106.602 192.009 106.692 192.156C106.783 192.3 106.828 192.493 106.828 192.736C106.828 193.032 106.756 193.284 106.612 193.492C106.471 193.697 106.266 193.855 105.996 193.964C105.73 194.073 105.408 194.128 105.032 194.128ZM107.966 194V187.12H109.194V190.36C109.352 190.184 109.548 190.043 109.782 189.936C110.02 189.829 110.281 189.776 110.566 189.776C110.881 189.776 111.157 189.845 111.394 189.984C111.634 190.12 111.822 190.311 111.958 190.556C112.094 190.799 112.162 191.083 112.162 191.408V194H110.934V191.668C110.934 191.375 110.857 191.147 110.702 190.984C110.55 190.819 110.341 190.736 110.074 190.736C109.893 190.736 109.736 190.773 109.602 190.848C109.472 190.92 109.37 191.02 109.298 191.148C109.229 191.273 109.194 191.416 109.194 191.576V194H107.966ZM115.237 194.128C114.861 194.128 114.518 194.035 114.209 193.848C113.902 193.659 113.658 193.4 113.477 193.072C113.298 192.741 113.209 192.365 113.209 191.944C113.209 191.533 113.295 191.165 113.469 190.84C113.642 190.512 113.881 190.253 114.185 190.064C114.491 189.872 114.842 189.776 115.237 189.776C115.527 189.776 115.798 189.832 116.049 189.944C116.302 190.053 116.509 190.207 116.669 190.404V189.904H117.897V194H116.669V193.46C116.482 193.676 116.267 193.841 116.025 193.956C115.782 194.071 115.519 194.128 115.237 194.128ZM115.601 193.084C115.814 193.084 116.003 193.036 116.169 192.94C116.334 192.841 116.463 192.707 116.557 192.536C116.65 192.365 116.697 192.171 116.697 191.952C116.697 191.731 116.649 191.536 116.553 191.368C116.459 191.197 116.33 191.064 116.165 190.968C116.002 190.869 115.814 190.82 115.601 190.82C115.39 190.82 115.202 190.869 115.037 190.968C114.871 191.064 114.741 191.197 114.645 191.368C114.549 191.539 114.501 191.733 114.501 191.952C114.501 192.171 114.547 192.365 114.641 192.536C114.737 192.707 114.867 192.841 115.033 192.94C115.198 193.036 115.387 193.084 115.601 193.084ZM119.478 194V190.836H118.93V189.904H119.478V188.888C119.478 188.504 119.538 188.171 119.658 187.888C119.781 187.603 119.954 187.384 120.178 187.232C120.402 187.077 120.673 187 120.99 187C121.187 187 121.381 187.031 121.57 187.092C121.759 187.151 121.921 187.233 122.054 187.34L121.63 188.2C121.505 188.123 121.362 188.084 121.202 188.084C121.063 188.084 120.958 188.12 120.886 188.192C120.817 188.261 120.769 188.359 120.742 188.484C120.718 188.607 120.706 188.751 120.706 188.916V189.904H121.674V190.836H120.706V194H119.478ZM124.551 194.128C124.109 194.128 123.711 194.033 123.359 193.844C123.01 193.652 122.733 193.392 122.527 193.064C122.322 192.736 122.219 192.365 122.219 191.952C122.219 191.648 122.277 191.364 122.391 191.1C122.509 190.836 122.671 190.605 122.879 190.408C123.087 190.208 123.329 190.053 123.603 189.944C123.878 189.832 124.175 189.776 124.495 189.776C124.922 189.776 125.295 189.865 125.615 190.044C125.938 190.22 126.189 190.465 126.367 190.78C126.549 191.095 126.639 191.461 126.639 191.88C126.639 191.915 126.638 191.945 126.635 191.972C126.635 191.996 126.631 192.043 126.623 192.112H123.483C123.483 192.32 123.53 192.501 123.623 192.656C123.719 192.811 123.853 192.932 124.023 193.02C124.194 193.105 124.393 193.148 124.619 193.148C124.833 193.148 125.021 193.107 125.183 193.024C125.349 192.941 125.507 192.809 125.659 192.628L126.543 193.072C126.351 193.403 126.079 193.661 125.727 193.848C125.375 194.035 124.983 194.128 124.551 194.128ZM123.527 191.432H125.431C125.405 191.275 125.347 191.139 125.259 191.024C125.174 190.909 125.065 190.821 124.931 190.76C124.798 190.699 124.647 190.668 124.479 190.668C124.301 190.668 124.143 190.699 124.007 190.76C123.871 190.821 123.762 190.909 123.679 191.024C123.597 191.139 123.546 191.275 123.527 191.432ZM127.732 194V189.904H128.96V190.36C129.117 190.184 129.313 190.043 129.548 189.936C129.785 189.829 130.046 189.776 130.332 189.776C130.646 189.776 130.922 189.845 131.16 189.984C131.4 190.12 131.588 190.311 131.724 190.556C131.86 190.799 131.928 191.083 131.928 191.408V194H130.7V191.668C130.7 191.375 130.622 191.147 130.468 190.984C130.316 190.819 130.106 190.736 129.84 190.736C129.658 190.736 129.501 190.773 129.368 190.848C129.237 190.92 129.136 191.02 129.064 191.148C128.994 191.273 128.96 191.416 128.96 191.576V194H127.732Z" fill="black"/>
</svg>
